<?xml version="1.0" encoding="utf-8" standalone="no"?>
<!DOCTYPE svg PUBLIC "-//W3C//DTD SVG 1.1//EN"
  "http://www.w3.org/Graphics/SVG/1.1/DTD/svg11.dtd">
<svg xmlns:xlink="http://www.w3.org/1999/xlink" width="846pt" height="525.907083pt" viewBox="0 0 846 525.907083" xmlns="http://www.w3.org/2000/svg" version="1.1">
 <metadata>
  <rdf:RDF xmlns:dc="http://purl.org/dc/elements/1.1/" xmlns:cc="http://creativecommons.org/ns#" xmlns:rdf="http://www.w3.org/1999/02/22-rdf-syntax-ns#">
   <cc:Work>
    <dc:type rdf:resource="http://purl.org/dc/dcmitype/StillImage"/>
    <dc:date>2026-03-19T16:54:34.905636</dc:date>
    <dc:format>image/svg+xml</dc:format>
    <dc:creator>
     <cc:Agent>
      <dc:title>Matplotlib v3.8.4, https://matplotlib.org/</dc:title>
     </cc:Agent>
    </dc:creator>
   </cc:Work>
  </rdf:RDF>
 </metadata>
 <defs>
  <style type="text/css">*{stroke-linejoin: round; stroke-linecap: butt}</style>
 </defs>
 <g id="figure_1">
  <g id="patch_1">
   <path d="M 0 525.907083 
L 846 525.907083 
L 846 0 
L 0 0 
z
" style="fill: #ffffff"/>
  </g>
  <g id="axes_1">
   <g id="patch_2">
    <path d="M 49.393753 479.341211 
L 838.8 479.341211 
L 838.8 58.214166 
L 49.393753 58.214166 
z
" style="fill: #ffffff"/>
   </g>
   <g id="patch_3">
    <path d="M 85.275856 479.341211 
L 118.270892 479.341211 
L 118.270892 232.736778 
L 85.275856 232.736778 
z
" clip-path="url(#p8f64361da1)" style="fill: #0000ff; stroke: #000000; stroke-width: 0.5; stroke-linejoin: miter"/>
   </g>
   <g id="patch_4">
    <path d="M 209.007242 479.341211 
L 242.002279 479.341211 
L 242.002279 405.094715 
L 209.007242 405.094715 
z
" clip-path="url(#p8f64361da1)" style="fill: #0000ff; stroke: #000000; stroke-width: 0.5; stroke-linejoin: miter"/>
   </g>
   <g id="patch_5">
    <path d="M 332.738629 479.341211 
L 365.733665 479.341211 
L 365.733665 447.521284 
L 332.738629 447.521284 
z
" clip-path="url(#p8f64361da1)" style="fill: #0000ff; stroke: #000000; stroke-width: 0.5; stroke-linejoin: miter"/>
   </g>
   <g id="patch_6">
    <path d="M 456.470015 479.341211 
L 489.465052 479.341211 
L 489.465052 436.914642 
L 456.470015 436.914642 
z
" clip-path="url(#p8f64361da1)" style="fill: #0000ff; stroke: #000000; stroke-width: 0.5; stroke-linejoin: miter"/>
   </g>
   <g id="patch_7">
    <path d="M 580.201402 479.341211 
L 613.196438 479.341211 
L 613.196438 431.611321 
L 580.201402 431.611321 
z
" clip-path="url(#p8f64361da1)" style="fill: #0000ff; stroke: #000000; stroke-width: 0.5; stroke-linejoin: miter"/>
   </g>
   <g id="patch_8">
    <path d="M 703.932789 479.341211 
L 736.927825 479.341211 
L 736.927825 346.758182 
L 703.932789 346.758182 
z
" clip-path="url(#p8f64361da1)" style="fill: #0000ff; stroke: #000000; stroke-width: 0.5; stroke-linejoin: miter"/>
   </g>
   <g id="patch_9">
    <path d="M 118.270892 479.341211 
L 151.265928 479.341211 
L 151.265928 295.838926 
L 118.270892 295.838926 
z
" clip-path="url(#p8f64361da1)" style="fill: #dcdcff; stroke: #000000; stroke-width: 0.5; stroke-linejoin: miter"/>
   </g>
   <g id="patch_10">
    <path d="M 242.002279 479.341211 
L 274.997315 479.341211 
L 274.997315 375.766623 
L 242.002279 375.766623 
z
" clip-path="url(#p8f64361da1)" style="fill: #dcdcff; stroke: #000000; stroke-width: 0.5; stroke-linejoin: miter"/>
   </g>
   <g id="patch_11">
    <path d="M 365.733665 479.341211 
L 398.728702 479.341211 
L 398.728702 193.923868 
L 365.733665 193.923868 
z
" clip-path="url(#p8f64361da1)" style="fill: #dcdcff; stroke: #000000; stroke-width: 0.5; stroke-linejoin: miter"/>
   </g>
   <g id="patch_12">
    <path d="M 489.465052 479.341211 
L 522.460088 479.341211 
L 522.460088 190.615636 
L 489.465052 190.615636 
z
" clip-path="url(#p8f64361da1)" style="fill: #dcdcff; stroke: #000000; stroke-width: 0.5; stroke-linejoin: miter"/>
   </g>
   <g id="patch_13">
    <path d="M 613.196438 479.341211 
L 646.191475 479.341211 
L 646.191475 239.946444 
L 613.196438 239.946444 
z
" clip-path="url(#p8f64361da1)" style="fill: #dcdcff; stroke: #000000; stroke-width: 0.5; stroke-linejoin: miter"/>
   </g>
   <g id="patch_14">
    <path d="M 736.927825 479.341211 
L 769.922861 479.341211 
L 769.922861 90.882326 
L 736.927825 90.882326 
z
" clip-path="url(#p8f64361da1)" style="fill: #dcdcff; stroke: #000000; stroke-width: 0.5; stroke-linejoin: miter"/>
   </g>
   <g id="patch_15">
    <path d="M 151.265928 479.341211 
L 184.260965 479.341211 
L 184.260965 189.523873 
L 151.265928 189.523873 
z
" clip-path="url(#p8f64361da1)" style="fill: #ff0000; stroke: #000000; stroke-width: 0.5; stroke-linejoin: miter"/>
   </g>
   <g id="patch_16">
    <path d="M 274.997315 479.341211 
L 307.992351 479.341211 
L 307.992351 336.674621 
L 274.997315 336.674621 
z
" clip-path="url(#p8f64361da1)" style="fill: #ff0000; stroke: #000000; stroke-width: 0.5; stroke-linejoin: miter"/>
   </g>
   <g id="patch_17">
    <path d="M 398.728702 479.341211 
L 431.723738 479.341211 
L 431.723738 275.486883 
L 398.728702 275.486883 
z
" clip-path="url(#p8f64361da1)" style="fill: #ff0000; stroke: #000000; stroke-width: 0.5; stroke-linejoin: miter"/>
   </g>
   <g id="patch_18">
    <path d="M 522.460088 479.341211 
L 555.455125 479.341211 
L 555.455125 186.651967 
L 522.460088 186.651967 
z
" clip-path="url(#p8f64361da1)" style="fill: #ff0000; stroke: #000000; stroke-width: 0.5; stroke-linejoin: miter"/>
   </g>
   <g id="patch_19">
    <path d="M 646.191475 479.341211 
L 679.186511 479.341211 
L 679.186511 204.339058 
L 646.191475 204.339058 
z
" clip-path="url(#p8f64361da1)" style="fill: #ff0000; stroke: #000000; stroke-width: 0.5; stroke-linejoin: miter"/>
   </g>
   <g id="patch_20">
    <path d="M 769.922861 479.341211 
L 802.917898 479.341211 
L 802.917898 78.267835 
L 769.922861 78.267835 
z
" clip-path="url(#p8f64361da1)" style="fill: #ff0000; stroke: #000000; stroke-width: 0.5; stroke-linejoin: miter"/>
   </g>
   <g id="matplotlib.axis_1">
    <g id="xtick_1">
     <g id="line2d_1">
      <defs>
       <path id="me5ee65099a" d="M 0 0 
L 0 3.5 
" style="stroke: #000000; stroke-width: 0.8"/>
      </defs>
      <g>
       <use xlink:href="#me5ee65099a" x="134.76841" y="479.341211" style="stroke: #000000; stroke-width: 0.8"/>
      </g>
     </g>
     <g id="text_1">
      <!-- 0-3 -->
      <g transform="translate(123.56044 496.857378) scale(0.15 -0.15)">
       <defs>
        <path id="LMRoman12-Bold-30" d="M 3309 2038 
C 3309 2648 3309 4178 1798 4178 
C 282 4178 282 2654 282 2038 
C 282 1428 282 -64 1792 -64 
C 3302 -64 3309 1409 3309 2038 
z
M 2541 2114 
C 2541 615 2445 527 2253 336 
C 2125 209 1952 146 1798 146 
C 1594 146 1440 228 1312 362 
C 1152 521 1050 621 1050 2114 
C 1050 2559 1050 2964 1101 3295 
C 1190 3924 1651 3968 1792 3968 
C 1997 3968 2394 3873 2483 3340 
C 2541 3015 2541 2501 2541 2114 
z
" transform="scale(0.015625)"/>
        <path id="LMRoman12-Bold-2d" d="M 1997 1088 
L 1997 1673 
L 77 1673 
L 77 1088 
L 1997 1088 
z
" transform="scale(0.015625)"/>
        <path id="LMRoman12-Bold-33" d="M 3290 1147 
C 3290 1459 3130 2061 2138 2232 
C 2701 2406 3091 2804 3091 3310 
C 3091 3792 2630 4197 1741 4197 
C 1024 4197 499 3818 499 3298 
C 499 2977 749 2874 915 2874 
C 1101 2874 1325 2996 1325 3292 
C 1325 3441 1261 3659 960 3704 
C 1229 3968 1664 3968 1702 3968 
C 2272 3968 2272 3522 2272 3329 
C 2272 3135 2246 2837 2042 2573 
C 1875 2352 1709 2340 1466 2340 
C 1389 2321 1261 2321 1235 2309 
C 1197 2290 1197 2245 1197 2220 
C 1197 2112 1235 2112 1363 2112 
L 1670 2112 
C 2387 2112 2387 1454 2387 1151 
C 2387 866 2387 196 1696 196 
C 1562 196 1139 196 832 424 
C 1107 481 1203 678 1203 868 
C 1203 1128 1018 1312 755 1312 
C 486 1312 301 1128 301 862 
C 301 278 941 -64 1728 -64 
C 2784 -64 3290 513 3290 1147 
z
" transform="scale(0.015625)"/>
       </defs>
       <use xlink:href="#LMRoman12-Bold-30" transform="scale(0.996264)"/>
       <use xlink:href="#LMRoman12-Bold-2d" transform="translate(56.039851 0) scale(0.996264)"/>
       <use xlink:href="#LMRoman12-Bold-33" transform="translate(93.399751 0) scale(0.996264)"/>
      </g>
     </g>
    </g>
    <g id="xtick_2">
     <g id="line2d_2">
      <g>
       <use xlink:href="#me5ee65099a" x="258.499797" y="479.341211" style="stroke: #000000; stroke-width: 0.8"/>
      </g>
     </g>
     <g id="text_2">
      <!-- 3-6 -->
      <g transform="translate(247.291827 496.857378) scale(0.15 -0.15)">
       <defs>
        <path id="LMRoman12-Bold-36" d="M 3290 1325 
C 3290 2217 2669 2688 1907 2688 
C 1779 2688 1370 2688 1114 2147 
L 1114 2320 
C 1114 2709 1133 3106 1312 3450 
C 1453 3719 1779 3968 2195 3968 
C 2317 3968 2547 3949 2701 3789 
C 2458 3764 2355 3585 2355 3412 
C 2355 3181 2528 3034 2733 3034 
C 2899 3034 3110 3143 3110 3424 
C 3110 3807 2854 4197 2182 4197 
C 1382 4197 301 3699 301 2035 
C 301 1607 301 -64 1818 -64 
C 2662 -64 3290 433 3290 1325 
z
M 2477 1331 
C 2477 700 2477 190 1811 190 
C 1402 190 1242 534 1216 585 
C 1126 796 1126 1306 1126 1363 
C 1126 2147 1466 2479 1843 2479 
C 2477 2479 2477 1969 2477 1331 
z
" transform="scale(0.015625)"/>
       </defs>
       <use xlink:href="#LMRoman12-Bold-33" transform="scale(0.996264)"/>
       <use xlink:href="#LMRoman12-Bold-2d" transform="translate(56.039851 0) scale(0.996264)"/>
       <use xlink:href="#LMRoman12-Bold-36" transform="translate(93.399751 0) scale(0.996264)"/>
      </g>
     </g>
    </g>
    <g id="xtick_3">
     <g id="line2d_3">
      <g>
       <use xlink:href="#me5ee65099a" x="382.231183" y="479.341211" style="stroke: #000000; stroke-width: 0.8"/>
      </g>
     </g>
     <g id="text_3">
      <!-- 6-9 -->
      <g transform="translate(371.023213 496.857378) scale(0.15 -0.15)">
       <defs>
        <path id="LMRoman12-Bold-39" d="M 3290 2111 
C 3290 2539 3290 4197 1811 4197 
C 928 4197 301 3688 301 2816 
C 301 1931 915 1455 1683 1455 
C 1952 1455 2272 1550 2477 2001 
L 2477 1816 
C 2477 1368 2477 190 1478 190 
C 1280 190 1050 241 915 344 
C 1101 382 1235 517 1235 723 
C 1235 954 1062 1102 858 1102 
C 691 1102 480 993 480 711 
C 480 263 832 -64 1491 -64 
C 2304 -64 3290 465 3290 2111 
z
M 2470 2740 
C 2470 2295 2285 1664 1747 1664 
C 1114 1664 1114 2179 1114 2803 
C 1114 3415 1114 3968 1811 3968 
C 2221 3968 2368 3606 2394 3536 
C 2458 3344 2470 2950 2470 2740 
z
" transform="scale(0.015625)"/>
       </defs>
       <use xlink:href="#LMRoman12-Bold-36" transform="scale(0.996264)"/>
       <use xlink:href="#LMRoman12-Bold-2d" transform="translate(56.039851 0) scale(0.996264)"/>
       <use xlink:href="#LMRoman12-Bold-39" transform="translate(93.399751 0) scale(0.996264)"/>
      </g>
     </g>
    </g>
    <g id="xtick_4">
     <g id="line2d_4">
      <g>
       <use xlink:href="#me5ee65099a" x="505.96257" y="479.341211" style="stroke: #000000; stroke-width: 0.8"/>
      </g>
     </g>
     <g id="text_4">
      <!-- 9-12 -->
      <g transform="translate(490.551611 496.857378) scale(0.15 -0.15)">
       <defs>
        <path id="LMRoman12-Bold-31" d="M 3091 0 
L 3091 267 
L 2214 267 
L 2214 3975 
C 2214 4160 2202 4160 1997 4160 
C 1523 3776 813 3776 672 3776 
L 550 3776 
L 550 3503 
L 672 3503 
C 896 3503 1235 3541 1491 3624 
L 1491 267 
L 602 267 
L 602 0 
L 1843 0 
L 3091 0 
z
" transform="scale(0.015625)"/>
        <path id="LMRoman12-Bold-32" d="M 3232 1368 
L 2963 1368 
C 2944 1234 2899 858 2803 795 
C 2752 750 2253 750 2157 750 
L 1165 750 
L 2086 1509 
C 2797 2038 3232 2362 3232 2974 
C 3232 3725 2547 4178 1702 4178 
C 979 4178 358 3770 358 3165 
C 358 2827 634 2732 781 2732 
C 979 2732 1210 2865 1210 3159 
C 1210 3427 1011 3560 813 3586 
C 1069 3879 1408 3904 1542 3904 
C 2131 3904 2413 3427 2413 2968 
C 2413 2471 2074 2013 1811 1739 
L 422 293 
C 358 235 358 223 358 108 
L 358 0 
L 3046 0 
L 3232 1368 
z
" transform="scale(0.015625)"/>
       </defs>
       <use xlink:href="#LMRoman12-Bold-39" transform="scale(0.996264)"/>
       <use xlink:href="#LMRoman12-Bold-2d" transform="translate(56.039851 0) scale(0.996264)"/>
       <use xlink:href="#LMRoman12-Bold-31" transform="translate(93.399751 0) scale(0.996264)"/>
       <use xlink:href="#LMRoman12-Bold-32" transform="translate(149.439601 0) scale(0.996264)"/>
      </g>
     </g>
    </g>
    <g id="xtick_5">
     <g id="line2d_5">
      <g>
       <use xlink:href="#me5ee65099a" x="629.693957" y="479.341211" style="stroke: #000000; stroke-width: 0.8"/>
      </g>
     </g>
     <g id="text_5">
      <!-- 12-15 -->
      <g transform="translate(610.080009 496.857378) scale(0.15 -0.15)">
       <defs>
        <path id="LMRoman12-Bold-35" d="M 3232 1293 
C 3232 2070 2701 2624 1824 2624 
C 1568 2624 1261 2573 986 2369 
L 986 3315 
C 1203 3264 1376 3264 1472 3264 
C 1626 3264 1990 3264 2419 3527 
C 2618 3647 2950 3936 2950 4083 
C 2950 4115 2950 4192 2874 4192 
C 2874 4192 2854 4192 2790 4159 
C 2496 4054 2182 3982 1824 3982 
C 1459 3982 1152 4052 851 4160 
C 806 4173 787 4186 768 4186 
C 691 4186 691 4122 691 4014 
L 691 2163 
C 691 2042 691 1972 819 1972 
C 883 1972 896 1979 947 2042 
C 1024 2132 1254 2414 1798 2414 
C 2387 2414 2387 1815 2387 1312 
C 2387 852 2387 190 1600 190 
C 1363 190 960 279 742 640 
C 1082 640 1165 895 1165 1035 
C 1165 1264 998 1435 762 1435 
C 570 1435 358 1321 358 1022 
C 358 470 864 -64 1626 -64 
C 2611 -64 3232 503 3232 1293 
z
" transform="scale(0.015625)"/>
       </defs>
       <use xlink:href="#LMRoman12-Bold-31" transform="scale(0.996264)"/>
       <use xlink:href="#LMRoman12-Bold-32" transform="translate(56.039851 0) scale(0.996264)"/>
       <use xlink:href="#LMRoman12-Bold-2d" transform="translate(112.079701 0) scale(0.996264)"/>
       <use xlink:href="#LMRoman12-Bold-31" transform="translate(149.439601 0) scale(0.996264)"/>
       <use xlink:href="#LMRoman12-Bold-35" transform="translate(205.479452 0) scale(0.996264)"/>
      </g>
     </g>
    </g>
    <g id="xtick_6">
     <g id="line2d_6">
      <g>
       <use xlink:href="#me5ee65099a" x="753.425343" y="479.341211" style="stroke: #000000; stroke-width: 0.8"/>
      </g>
     </g>
     <g id="text_6">
      <!-- 15-18 -->
      <g transform="translate(733.811396 496.857378) scale(0.15 -0.15)">
       <defs>
        <path id="LMRoman12-Bold-38" d="M 3290 1188 
C 3290 1884 2739 2184 2413 2363 
C 2733 2529 3091 2765 3091 3263 
C 3091 3922 2502 4203 1805 4203 
C 954 4203 499 3718 499 3098 
C 499 2754 672 2370 1146 2121 
C 422 1801 301 1361 301 1029 
C 301 294 941 -64 1786 -64 
C 2733 -64 3290 446 3290 1188 
z
M 2637 3262 
C 2637 3001 2522 2727 2157 2517 
L 1261 3025 
C 1133 3096 954 3243 954 3455 
C 954 3968 1638 3968 1786 3968 
C 2330 3968 2637 3682 2637 3262 
z
M 2778 861 
C 2778 350 2266 190 1805 190 
C 1171 190 813 529 813 1033 
C 813 1500 1101 1794 1408 1967 
L 2291 1461 
C 2502 1340 2778 1187 2778 861 
z
" transform="scale(0.015625)"/>
       </defs>
       <use xlink:href="#LMRoman12-Bold-31" transform="scale(0.996264)"/>
       <use xlink:href="#LMRoman12-Bold-35" transform="translate(56.039851 0) scale(0.996264)"/>
       <use xlink:href="#LMRoman12-Bold-2d" transform="translate(112.079701 0) scale(0.996264)"/>
       <use xlink:href="#LMRoman12-Bold-31" transform="translate(149.439601 0) scale(0.996264)"/>
       <use xlink:href="#LMRoman12-Bold-38" transform="translate(205.479452 0) scale(0.996264)"/>
      </g>
     </g>
    </g>
    <g id="text_7">
     <!-- Distance Bin (m) -->
     <g transform="translate(380.279019 514.971093) scale(0.15 -0.15)">
      <defs>
       <path id="LMRoman12-Bold-44" d="M 5114 2138 
C 5114 3572 4141 4352 2938 4352 
L 243 4352 
L 243 4078 
L 922 4078 
L 922 273 
L 243 273 
L 243 0 
L 2938 0 
C 4166 0 5114 780 5114 2138 
z
M 4243 2144 
C 4243 1402 4147 1073 3923 775 
C 3699 482 3270 273 2694 273 
L 1734 273 
L 1734 4078 
L 2694 4078 
C 3251 4078 3699 3863 3936 3532 
C 4122 3273 4243 2962 4243 2144 
z
" transform="scale(0.015625)"/>
       <path id="LMRoman12-Bold-69" d="M 1786 -13 
L 1786 260 
L 1389 260 
L 1389 2816 
L 301 2816 
L 301 2517 
C 678 2517 723 2517 723 2270 
L 723 260 
L 282 260 
L 282 -13 
C 429 0 870 0 1043 0 
C 1222 0 1632 0 1786 -13 
z
M 1466 3850 
C 1466 4110 1248 4307 1005 4307 
C 742 4307 538 4098 538 3850 
C 538 3589 755 3392 998 3392 
C 1261 3392 1466 3602 1466 3850 
z
" transform="scale(0.015625)"/>
       <path id="LMRoman12-Bold-73" d="M 2592 888 
C 2592 1192 2426 1402 2298 1516 
C 2035 1731 1818 1770 1472 1833 
C 1062 1903 678 1973 678 2277 
C 678 2689 1248 2689 1382 2689 
C 2093 2689 2131 2245 2144 2087 
C 2150 2005 2202 2005 2278 2005 
C 2413 2005 2413 2024 2413 2170 
L 2413 2715 
C 2413 2836 2413 2880 2317 2880 
C 2278 2880 2266 2880 2170 2823 
C 2144 2804 2074 2759 2042 2740 
C 1862 2842 1626 2880 1395 2880 
C 1203 2880 243 2880 243 2056 
C 243 1389 1037 1250 1235 1218 
C 1408 1187 1619 1148 1645 1148 
C 1901 1091 2157 932 2157 666 
C 2157 178 1574 178 1440 178 
C 1114 178 710 279 531 896 
C 493 1023 486 1023 378 1023 
C 243 1023 243 1004 243 858 
L 243 132 
C 243 12 243 -32 339 -32 
C 384 -32 397 -32 525 70 
L 691 191 
C 979 -32 1325 -32 1440 -32 
C 1792 -32 2592 44 2592 888 
z
" transform="scale(0.015625)"/>
       <path id="LMRoman12-Bold-74" d="M 2394 795 
L 2394 1133 
L 2125 1133 
L 2125 802 
C 2125 381 1933 197 1734 197 
C 1350 197 1350 624 1350 770 
L 1350 2560 
L 2272 2560 
L 2272 2833 
L 1350 2833 
L 1350 4032 
L 1082 4032 
C 1075 3405 768 2776 134 2776 
L 134 2560 
L 653 2560 
L 653 789 
C 653 114 1178 -32 1638 -32 
C 2112 -32 2394 325 2394 795 
z
" transform="scale(0.015625)"/>
       <path id="LMRoman12-Bold-61" d="M 3462 145 
C 3462 273 3405 273 3315 273 
C 2912 273 2912 374 2912 522 
L 2912 1898 
C 2912 2484 2445 2879 1542 2879 
C 1184 2879 429 2879 429 2334 
C 429 2061 634 1945 806 1945 
C 998 1945 1184 2079 1184 2323 
C 1184 2445 1139 2559 1030 2630 
C 1242 2688 1395 2688 1517 2688 
C 1952 2688 2214 2445 2214 1919 
L 2214 1663 
C 1203 1663 186 1382 186 676 
C 186 95 928 -32 1370 -32 
C 1862 -32 2176 233 2304 510 
C 2304 274 2304 0 2950 0 
L 3277 0 
C 3411 0 3462 0 3462 145 
z
M 2214 882 
C 2214 291 1677 178 1472 178 
C 1158 178 896 390 896 686 
C 896 1273 1587 1472 2214 1472 
L 2214 882 
z
" transform="scale(0.015625)"/>
       <path id="LMRoman12-Bold-6e" d="M 3840 -13 
L 3840 260 
L 3398 260 
L 3398 1924 
C 3398 2525 3136 2834 2432 2834 
C 1971 2834 1574 2615 1357 2143 
L 1350 2143 
L 1350 2816 
L 269 2816 
L 269 2517 
C 666 2517 710 2517 710 2270 
L 710 260 
L 269 260 
L 269 -13 
C 416 0 877 0 1056 0 
C 1235 0 1702 0 1850 -13 
L 1850 260 
L 1408 260 
L 1408 1607 
C 1408 2289 1920 2624 2330 2624 
C 2566 2624 2701 2473 2701 1993 
L 2701 260 
L 2259 260 
L 2259 -13 
C 2406 0 2867 0 3046 0 
C 3226 0 3693 0 3840 -13 
z
" transform="scale(0.015625)"/>
       <path id="LMRoman12-Bold-63" d="M 2995 753 
C 2995 829 2925 829 2861 829 
C 2758 829 2752 823 2720 747 
C 2675 625 2502 197 1914 197 
C 1011 197 1011 1166 1011 1453 
C 1011 1829 1018 2664 1856 2664 
C 1901 2664 2278 2664 2278 2632 
C 2278 2632 2272 2618 2259 2612 
C 2240 2593 2157 2496 2157 2334 
C 2157 2064 2374 1954 2534 1954 
C 2669 1954 2912 2039 2912 2346 
C 2912 2880 2176 2880 1830 2880 
C 691 2880 243 2145 243 1414 
C 243 552 851 -32 1792 -32 
C 2797 -32 2995 708 2995 753 
z
" transform="scale(0.015625)"/>
       <path id="LMRoman12-Bold-65" d="M 3078 748 
C 3078 843 2982 843 2944 843 
C 2842 843 2835 824 2797 742 
C 2630 330 2208 197 1901 197 
C 973 197 966 1053 966 1408 
L 2893 1408 
C 3040 1408 3078 1408 3078 1567 
C 3078 1758 3034 2233 2739 2532 
C 2470 2798 2112 2880 1741 2880 
C 742 2880 198 2233 198 1434 
C 198 545 858 -32 1824 -32 
C 2790 -32 3078 640 3078 748 
z
M 2490 1593 
L 966 1593 
C 979 1852 986 2100 1120 2328 
C 1242 2531 1466 2670 1741 2670 
C 2426 2670 2483 1909 2490 1593 
z
" transform="scale(0.015625)"/>
       <path id="LMRoman12-Bold-42" d="M 4717 1174 
C 4717 1778 4186 2216 3411 2273 
C 4333 2444 4512 2964 4512 3262 
C 4512 3845 3974 4352 2950 4352 
L 250 4352 
L 250 4078 
L 928 4078 
L 928 273 
L 250 273 
L 250 0 
L 3142 0 
C 4198 0 4717 565 4717 1174 
z
M 3667 3267 
C 3667 2823 3418 2368 2669 2368 
L 1715 2368 
L 1715 4078 
L 2874 4078 
C 3533 4078 3667 3584 3667 3267 
z
M 3846 1187 
C 3846 787 3629 273 2893 273 
L 1715 273 
L 1715 2158 
L 2989 2158 
C 3738 2158 3846 1472 3846 1187 
z
" transform="scale(0.015625)"/>
       <path id="LMRoman12-Bold-28" d="M 2394 -1524 
C 2394 -1498 2394 -1485 2272 -1371 
C 1555 -659 1280 461 1280 1580 
C 1280 2834 1594 3865 2310 4583 
C 2387 4659 2394 4666 2394 4691 
C 2394 4768 2317 4768 2285 4768 
C 2227 4768 2214 4768 2048 4634 
C 1126 3903 691 2732 691 1588 
C 691 417 1133 -722 2042 -1460 
C 2208 -1600 2221 -1600 2285 -1600 
C 2317 -1600 2394 -1600 2394 -1524 
z
" transform="scale(0.015625)"/>
       <path id="LMRoman12-Bold-6d" d="M 5843 -13 
L 5843 260 
L 5402 260 
L 5402 1924 
C 5402 2506 5152 2834 4435 2834 
C 3789 2834 3488 2407 3386 2206 
C 3283 2740 2848 2834 2438 2834 
C 1824 2834 1491 2445 1357 2143 
L 1350 2143 
L 1350 2816 
L 269 2816 
L 269 2517 
C 666 2517 710 2517 710 2270 
L 710 260 
L 269 260 
L 269 -13 
C 416 0 877 0 1056 0 
C 1235 0 1702 0 1850 -13 
L 1850 260 
L 1408 260 
L 1408 1607 
C 1408 2296 1926 2624 2330 2624 
C 2566 2624 2707 2485 2707 1993 
L 2707 260 
L 2266 260 
L 2266 -13 
C 2413 0 2874 0 3053 0 
C 3232 0 3699 0 3846 -13 
L 3846 260 
L 3405 260 
L 3405 1607 
C 3405 2296 3923 2624 4326 2624 
C 4563 2624 4704 2485 4704 1993 
L 4704 260 
L 4262 260 
L 4262 -13 
C 4410 0 4870 0 5050 0 
C 5229 0 5696 0 5843 -13 
z
" transform="scale(0.015625)"/>
       <path id="LMRoman12-Bold-29" d="M 2099 1581 
C 2099 2751 1658 3890 749 4628 
C 582 4768 570 4768 506 4768 
C 474 4768 397 4768 397 4692 
C 397 4667 397 4654 518 4540 
C 1235 3827 1510 2708 1510 1588 
C 1510 334 1197 -696 480 -1415 
C 403 -1492 397 -1498 397 -1524 
C 397 -1600 474 -1600 506 -1600 
C 563 -1600 576 -1600 742 -1466 
C 1664 -735 2099 436 2099 1581 
z
" transform="scale(0.015625)"/>
      </defs>
      <use xlink:href="#LMRoman12-Bold-44" transform="scale(0.996264)"/>
      <use xlink:href="#LMRoman12-Bold-69" transform="translate(85.902886 0) scale(0.996264)"/>
      <use xlink:href="#LMRoman12-Bold-73" transform="translate(117.036136 0) scale(0.996264)"/>
      <use xlink:href="#LMRoman12-Bold-74" transform="translate(161.24529 0) scale(0.996264)"/>
      <use xlink:href="#LMRoman12-Bold-61" transform="translate(204.831841 0) scale(0.996264)"/>
      <use xlink:href="#LMRoman12-Bold-6e" transform="translate(259.315029 0) scale(0.996264)"/>
      <use xlink:href="#LMRoman12-Bold-63" transform="translate(321.58153 0) scale(0.996264)"/>
      <use xlink:href="#LMRoman12-Bold-65" transform="translate(371.39473 0) scale(0.996264)"/>
      <use xlink:href="#LMRoman12-Bold-42" transform="translate(459.896178 0) scale(0.996264)"/>
      <use xlink:href="#LMRoman12-Bold-69" transform="translate(539.572413 0) scale(0.996264)"/>
      <use xlink:href="#LMRoman12-Bold-6e" transform="translate(570.705664 0) scale(0.996264)"/>
      <use xlink:href="#LMRoman12-Bold-28" transform="translate(670.332065 0) scale(0.996264)"/>
      <use xlink:href="#LMRoman12-Bold-6d" transform="translate(713.918615 0) scale(0.996264)"/>
      <use xlink:href="#LMRoman12-Bold-29" transform="translate(807.318366 0) scale(0.996264)"/>
     </g>
    </g>
   </g>
   <g id="matplotlib.axis_2">
    <g id="ytick_1">
     <g id="line2d_7">
      <defs>
       <path id="m3f7690ffb6" d="M 0 0 
L -3.5 0 
" style="stroke: #000000; stroke-width: 0.8"/>
      </defs>
      <g>
       <use xlink:href="#m3f7690ffb6" x="49.393753" y="479.341211" style="stroke: #000000; stroke-width: 0.8"/>
      </g>
     </g>
     <g id="text_8">
      <!-- $\mathdefault{0.0}$ -->
      <g transform="translate(24.621912 484.599295) scale(0.15 -0.15)">
       <defs>
        <path id="LMRoman17-Regular-30" d="M 2688 2025 
C 2688 2416 2682 3080 2413 3591 
C 2176 4039 1798 4198 1466 4198 
C 1158 4198 768 4058 525 3597 
C 269 3118 243 2524 243 2025 
C 243 1661 250 1106 448 619 
C 723 -39 1216 -128 1466 -128 
C 1760 -128 2208 -7 2470 600 
C 2662 1042 2688 1559 2688 2025 
z
M 2278 2096 
C 2278 1680 2278 1169 2202 792 
C 2067 95 1690 -26 1466 -26 
C 1056 -26 813 325 723 812 
C 653 1188 653 1738 653 2096 
C 653 2588 653 2997 736 3387 
C 858 3929 1216 4096 1466 4096 
C 1728 4096 2067 3923 2189 3400 
C 2272 3036 2278 2607 2278 2096 
z
" transform="scale(0.015625)"/>
        <path id="LMMathItalic12-Regular-3a" d="M 1178 307 
C 1178 492 1024 619 870 619 
C 685 619 557 466 557 313 
C 557 128 710 0 864 0 
C 1050 0 1178 153 1178 307 
z
" transform="scale(0.015625)"/>
       </defs>
       <use xlink:href="#LMRoman17-Regular-30" transform="scale(0.996264)"/>
       <use xlink:href="#LMMathItalic12-Regular-3a" transform="translate(45.690948 0) scale(0.996264)"/>
       <use xlink:href="#LMRoman17-Regular-30" transform="translate(72.788125 0) scale(0.996264)"/>
      </g>
     </g>
    </g>
    <g id="ytick_2">
     <g id="line2d_8">
      <g>
       <use xlink:href="#m3f7690ffb6" x="49.393753" y="426.307999" style="stroke: #000000; stroke-width: 0.8"/>
      </g>
     </g>
     <g id="text_9">
      <!-- $\mathdefault{0.1}$ -->
      <g transform="translate(24.621912 431.566083) scale(0.15 -0.15)">
       <defs>
        <path id="LMRoman17-Regular-31" d="M 2458 0 
L 2458 160 
L 2266 160 
C 1715 160 1702 230 1702 458 
L 1702 4058 
C 1702 4192 1696 4192 1606 4192 
C 1357 3916 979 3827 621 3827 
C 602 3827 570 3827 563 3808 
C 557 3795 557 3782 557 3648 
C 755 3648 1088 3686 1344 3839 
L 1344 461 
C 1344 236 1331 160 781 160 
L 589 160 
L 589 0 
L 1523 0 
L 2458 0 
z
" transform="scale(0.015625)"/>
       </defs>
       <use xlink:href="#LMRoman17-Regular-30" transform="scale(0.996264)"/>
       <use xlink:href="#LMMathItalic12-Regular-3a" transform="translate(45.690948 0) scale(0.996264)"/>
       <use xlink:href="#LMRoman17-Regular-31" transform="translate(72.788125 0) scale(0.996264)"/>
      </g>
     </g>
    </g>
    <g id="ytick_3">
     <g id="line2d_9">
      <g>
       <use xlink:href="#m3f7690ffb6" x="49.393753" y="373.274788" style="stroke: #000000; stroke-width: 0.8"/>
      </g>
     </g>
     <g id="text_10">
      <!-- $\mathdefault{0.2}$ -->
      <g transform="translate(24.621912 378.532872) scale(0.15 -0.15)">
       <defs>
        <path id="LMRoman17-Regular-32" d="M 2669 989 
L 2554 989 
C 2490 536 2438 459 2413 420 
C 2381 369 1920 369 1830 369 
L 602 369 
L 1824 1597 
C 2214 1967 2669 2402 2669 3035 
C 2669 3790 2067 4224 1395 4224 
C 691 4224 262 3604 262 3030 
C 262 2780 448 2748 525 2748 
C 589 2748 781 2787 781 3010 
C 781 3207 614 3264 525 3264 
C 486 3264 448 3258 422 3245 
C 544 3790 915 4058 1306 4058 
C 1862 4058 2227 3617 2227 3035 
C 2227 2479 1901 2000 1536 1584 
L 262 146 
L 262 0 
L 2515 0 
L 2669 989 
z
" transform="scale(0.015625)"/>
       </defs>
       <use xlink:href="#LMRoman17-Regular-30" transform="scale(0.996264)"/>
       <use xlink:href="#LMMathItalic12-Regular-3a" transform="translate(45.690948 0) scale(0.996264)"/>
       <use xlink:href="#LMRoman17-Regular-32" transform="translate(72.788125 0) scale(0.996264)"/>
      </g>
     </g>
    </g>
    <g id="ytick_4">
     <g id="line2d_10">
      <g>
       <use xlink:href="#m3f7690ffb6" x="49.393753" y="320.241576" style="stroke: #000000; stroke-width: 0.8"/>
      </g>
     </g>
     <g id="text_11">
      <!-- $\mathdefault{0.3}$ -->
      <g transform="translate(24.621912 325.49966) scale(0.15 -0.15)">
       <defs>
        <path id="LMRoman17-Regular-33" d="M 2720 1085 
C 2720 1707 2208 2157 1600 2227 
C 2086 2328 2554 2756 2554 3329 
C 2554 3820 2048 4179 1472 4179 
C 890 4179 378 3829 378 3329 
C 378 3110 544 3072 627 3072 
C 762 3072 877 3155 877 3321 
C 877 3486 762 3569 627 3569 
C 602 3569 570 3569 544 3557 
C 730 3959 1235 4032 1459 4032 
C 1683 4032 2106 3925 2106 3320 
C 2106 3143 2080 2828 1862 2550 
C 1670 2304 1453 2304 1242 2284 
C 1210 2284 1062 2269 1037 2269 
C 992 2263 966 2257 966 2208 
C 966 2163 973 2157 1101 2157 
L 1414 2157 
C 1984 2157 2234 1662 2234 1090 
C 2234 320 1824 25 1453 25 
C 1114 25 563 194 390 693 
C 422 680 454 680 486 680 
C 640 680 755 782 755 948 
C 755 1133 614 1216 486 1216 
C 378 1216 211 1165 211 926 
C 211 335 787 -128 1466 -128 
C 2176 -128 2720 430 2720 1085 
z
" transform="scale(0.015625)"/>
       </defs>
       <use xlink:href="#LMRoman17-Regular-30" transform="scale(0.996264)"/>
       <use xlink:href="#LMMathItalic12-Regular-3a" transform="translate(45.690948 0) scale(0.996264)"/>
       <use xlink:href="#LMRoman17-Regular-33" transform="translate(72.788125 0) scale(0.996264)"/>
      </g>
     </g>
    </g>
    <g id="ytick_5">
     <g id="line2d_11">
      <g>
       <use xlink:href="#m3f7690ffb6" x="49.393753" y="267.208365" style="stroke: #000000; stroke-width: 0.8"/>
      </g>
     </g>
     <g id="text_12">
      <!-- $\mathdefault{0.4}$ -->
      <g transform="translate(24.621912 272.466449) scale(0.15 -0.15)">
       <defs>
        <path id="LMRoman17-Regular-34" d="M 2803 1114 
L 2803 1280 
L 2150 1280 
L 2150 4154 
C 2150 4288 2144 4288 2029 4288 
L 128 1280 
L 128 1114 
L 1779 1114 
L 1779 487 
C 1779 255 1766 192 1318 192 
L 1197 192 
L 1197 32 
C 1402 32 1747 32 1965 32 
C 2182 32 2528 32 2733 32 
L 2733 192 
L 2611 192 
C 2163 192 2150 255 2150 487 
L 2150 1114 
L 2803 1114 
z
M 1798 1280 
L 256 1280 
L 1798 3734 
L 1798 1280 
z
" transform="scale(0.015625)"/>
       </defs>
       <use xlink:href="#LMRoman17-Regular-30" transform="scale(0.996264)"/>
       <use xlink:href="#LMMathItalic12-Regular-3a" transform="translate(45.690948 0) scale(0.996264)"/>
       <use xlink:href="#LMRoman17-Regular-34" transform="translate(72.788125 0) scale(0.996264)"/>
      </g>
     </g>
    </g>
    <g id="ytick_6">
     <g id="line2d_12">
      <g>
       <use xlink:href="#m3f7690ffb6" x="49.393753" y="214.175154" style="stroke: #000000; stroke-width: 0.8"/>
      </g>
     </g>
     <g id="text_13">
      <!-- $\mathdefault{0.5}$ -->
      <g transform="translate(24.621912 219.433237) scale(0.15 -0.15)">
       <defs>
        <path id="LMRoman17-Regular-35" d="M 2669 1264 
C 2669 2030 2170 2624 1549 2624 
C 1222 2624 947 2503 730 2274 
L 730 3692 
C 794 3666 1056 3584 1325 3584 
C 1920 3584 2246 3911 2432 4100 
C 2432 4157 2432 4192 2394 4192 
C 2394 4192 2374 4192 2323 4163 
C 2099 4058 1837 3973 1517 3973 
C 1325 3973 1037 3999 723 4139 
C 653 4171 634 4171 634 4171 
C 602 4171 595 4164 595 4037 
L 595 2203 
C 595 2089 595 2057 659 2057 
C 691 2057 704 2070 736 2114 
C 941 2401 1222 2522 1542 2522 
C 1766 2522 2246 2382 2246 1289 
C 2246 1085 2246 715 2054 421 
C 1894 159 1645 25 1370 25 
C 947 25 518 320 403 814 
C 429 807 480 795 506 795 
C 589 795 749 840 749 1038 
C 749 1210 627 1280 506 1280 
C 358 1280 262 1190 262 1011 
C 262 454 704 -128 1382 -128 
C 2042 -128 2669 440 2669 1264 
z
" transform="scale(0.015625)"/>
       </defs>
       <use xlink:href="#LMRoman17-Regular-30" transform="scale(0.996264)"/>
       <use xlink:href="#LMMathItalic12-Regular-3a" transform="translate(45.690948 0) scale(0.996264)"/>
       <use xlink:href="#LMRoman17-Regular-35" transform="translate(72.788125 0) scale(0.996264)"/>
      </g>
     </g>
    </g>
    <g id="ytick_7">
     <g id="line2d_13">
      <g>
       <use xlink:href="#m3f7690ffb6" x="49.393753" y="161.141942" style="stroke: #000000; stroke-width: 0.8"/>
      </g>
     </g>
     <g id="text_14">
      <!-- $\mathdefault{0.6}$ -->
      <g transform="translate(24.621912 166.400026) scale(0.15 -0.15)">
       <defs>
        <path id="LMRoman17-Regular-36" d="M 2688 1283 
C 2688 2081 2170 2662 1517 2662 
C 1126 2662 838 2407 678 1960 
L 678 2176 
C 678 3690 1395 4032 1811 4032 
C 1946 4032 2272 4009 2400 3776 
C 2298 3776 2106 3776 2106 3553 
C 2106 3381 2246 3323 2336 3323 
C 2394 3323 2566 3348 2566 3560 
C 2566 3954 2246 4179 1805 4179 
C 1043 4179 243 3390 243 1984 
C 243 253 966 -128 1478 -128 
C 2099 -128 2688 427 2688 1283 
z
M 2253 1289 
C 2253 944 2253 690 2118 434 
C 1978 171 1773 25 1478 25 
C 691 25 691 1200 691 1436 
C 691 1896 909 2560 1504 2560 
C 1613 2560 1926 2560 2138 2120 
C 2253 1870 2253 1609 2253 1289 
z
" transform="scale(0.015625)"/>
       </defs>
       <use xlink:href="#LMRoman17-Regular-30" transform="scale(0.996264)"/>
       <use xlink:href="#LMMathItalic12-Regular-3a" transform="translate(45.690948 0) scale(0.996264)"/>
       <use xlink:href="#LMRoman17-Regular-36" transform="translate(72.788125 0) scale(0.996264)"/>
      </g>
     </g>
    </g>
    <g id="ytick_8">
     <g id="line2d_14">
      <g>
       <use xlink:href="#m3f7690ffb6" x="49.393753" y="108.108731" style="stroke: #000000; stroke-width: 0.8"/>
      </g>
     </g>
     <g id="text_15">
      <!-- $\mathdefault{0.7}$ -->
      <g transform="translate(24.621912 113.366814) scale(0.15 -0.15)">
       <defs>
        <path id="LMRoman17-Regular-37" d="M 2886 3941 
L 2886 4081 
L 1382 4081 
C 634 4081 621 4165 595 4288 
L 480 4288 
L 294 3094 
L 410 3094 
C 429 3215 474 3540 550 3661 
C 589 3712 1062 3712 1171 3712 
L 2579 3712 
L 1869 2661 
C 1395 1954 1069 999 1069 165 
C 1069 89 1069 -128 1299 -128 
C 1530 -128 1530 89 1530 171 
L 1530 465 
C 1530 1508 1709 2196 2003 2636 
L 2886 3941 
z
" transform="scale(0.015625)"/>
       </defs>
       <use xlink:href="#LMRoman17-Regular-30" transform="scale(0.996264)"/>
       <use xlink:href="#LMMathItalic12-Regular-3a" transform="translate(45.690948 0) scale(0.996264)"/>
       <use xlink:href="#LMRoman17-Regular-37" transform="translate(72.788125 0) scale(0.996264)"/>
      </g>
     </g>
    </g>
    <g id="text_16">
     <!-- Median Absolute Relative Error -->
     <g transform="translate(17.716167 387.590244) rotate(-90) scale(0.15 -0.15)">
      <defs>
       <path id="LMRoman12-Bold-4d" d="M 6560 -13 
L 6560 260 
L 5882 260 
L 5882 4078 
L 6560 4078 
L 6560 4352 
L 5197 4352 
C 5062 4352 5005 4352 4947 4218 
L 3411 795 
L 1875 4218 
C 1818 4352 1760 4352 1626 4352 
L 262 4352 
L 262 4078 
L 941 4078 
L 941 444 
C 941 304 934 298 768 272 
C 653 260 525 260 410 260 
L 262 260 
L 262 -13 
C 410 0 909 0 1088 0 
C 1267 0 1773 0 1920 -13 
L 1920 260 
L 1773 260 
C 1600 260 1587 260 1434 279 
C 1248 305 1242 311 1242 451 
L 1242 4002 
L 1248 4002 
L 2989 134 
C 3021 64 3059 0 3168 0 
C 3277 0 3315 64 3347 134 
L 5120 4078 
L 5126 4078 
L 5126 260 
L 4448 260 
L 4448 -13 
C 4621 0 5286 0 5504 0 
C 5722 0 6387 0 6560 -13 
z
" transform="scale(0.015625)"/>
       <path id="LMRoman12-Bold-64" d="M 3770 0 
L 3770 292 
C 3373 292 3328 292 3328 540 
L 3328 4352 
L 2221 4352 
L 2221 4053 
C 2618 4053 2662 4053 2662 3816 
L 2662 2575 
C 2522 2696 2240 2880 1798 2880 
C 890 2880 243 2318 243 1424 
C 243 510 877 -32 1728 -32 
C 2080 -32 2381 94 2630 311 
L 2630 0 
L 3770 0 
z
M 2630 661 
C 2362 262 2035 178 1805 178 
C 1011 178 1011 989 1011 1411 
C 1011 1712 1011 2032 1152 2274 
C 1350 2632 1728 2670 1875 2670 
C 2138 2670 2419 2556 2630 2276 
L 2630 661 
z
" transform="scale(0.015625)"/>
       <path id="LMRoman12-Bold-41" d="M 5184 -13 
L 5184 260 
L 4576 260 
L 2931 4301 
C 2886 4416 2874 4448 2720 4448 
C 2560 4448 2547 4416 2502 4301 
L 915 413 
C 870 311 870 299 691 279 
C 531 260 506 260 365 260 
L 250 260 
L 250 -13 
C 416 0 800 0 986 0 
C 1158 0 1626 0 1773 -13 
L 1773 260 
C 1632 260 1389 260 1210 331 
C 1229 390 1229 402 1242 428 
L 1581 1262 
L 3296 1262 
L 3699 260 
L 3098 260 
L 3098 0 
C 3302 0 3923 0 4166 0 
C 4371 0 5024 0 5184 -13 
z
M 3181 1536 
L 1690 1536 
L 2438 3367 
L 3181 1536 
z
" transform="scale(0.015625)"/>
       <path id="LMRoman12-Bold-62" d="M 3750 1431 
C 3750 2305 3149 2880 2272 2880 
C 1894 2880 1594 2759 1331 2555 
L 1331 4352 
L 224 4352 
L 224 4053 
C 621 4053 666 4053 666 3816 
L 666 0 
L 934 0 
C 1043 123 1152 247 1254 376 
C 1581 38 1933 -32 2189 -32 
C 3072 -32 3750 504 3750 1431 
z
M 2982 1437 
C 2982 1149 2982 785 2829 548 
C 2630 241 2330 178 2125 178 
C 1690 178 1453 484 1363 625 
L 1363 2248 
C 1587 2555 1920 2670 2189 2670 
C 2982 2670 2982 1859 2982 1437 
z
" transform="scale(0.015625)"/>
       <path id="LMRoman12-Bold-6f" d="M 3392 1395 
C 3392 2252 2803 2880 1798 2880 
C 755 2880 198 2220 198 1395 
C 198 565 787 -32 1792 -32 
C 2835 -32 3392 596 3392 1395 
z
M 2624 1459 
C 2624 932 2624 197 1798 197 
C 966 197 966 939 966 1459 
C 966 1757 966 2074 1088 2303 
C 1229 2556 1517 2670 1792 2670 
C 2157 2670 2387 2499 2496 2322 
C 2624 2093 2624 1763 2624 1459 
z
" transform="scale(0.015625)"/>
       <path id="LMRoman12-Bold-6c" d="M 1830 -13 
L 1830 260 
L 1389 260 
L 1389 4352 
L 282 4352 
L 282 4053 
C 678 4053 723 4053 723 3806 
L 723 260 
L 282 260 
L 282 -13 
C 429 0 883 0 1056 0 
C 1229 0 1683 0 1830 -13 
z
" transform="scale(0.015625)"/>
       <path id="LMRoman12-Bold-75" d="M 3840 0 
L 3840 292 
C 3443 292 3398 292 3398 540 
L 3398 2859 
L 2259 2859 
L 2259 2560 
C 2656 2560 2701 2560 2701 2312 
L 2701 1056 
C 2701 569 2413 178 1914 178 
C 1434 178 1408 337 1408 684 
L 1408 2859 
L 269 2859 
L 269 2560 
C 666 2560 710 2560 710 2312 
L 710 794 
C 710 153 1139 -32 1824 -32 
C 1978 -32 2451 -32 2726 496 
L 2733 496 
L 2733 0 
L 3840 0 
z
" transform="scale(0.015625)"/>
       <path id="LMRoman12-Bold-52" d="M 5344 583 
C 5344 692 5293 711 5210 711 
C 5088 711 5082 667 5075 583 
C 5043 262 4845 128 4666 128 
C 4256 128 4211 558 4160 1148 
C 4122 1489 4077 1965 3386 2177 
C 4250 2403 4461 2855 4461 3195 
C 4461 3824 3789 4352 2605 4352 
L 243 4352 
L 243 4078 
L 922 4078 
L 922 267 
L 243 267 
L 243 0 
C 429 0 1094 0 1325 0 
C 1555 0 2227 0 2413 0 
L 2413 267 
L 1734 267 
L 1734 2094 
L 2496 2094 
C 2752 2094 2957 2017 3098 1849 
C 3290 1630 3290 1488 3290 1057 
C 3290 626 3290 363 3616 144 
C 3949 -82 4474 -82 4614 -82 
C 5267 -82 5344 494 5344 583 
z
M 3558 3194 
C 3558 2849 3552 2304 2483 2304 
L 1734 2304 
L 1734 4078 
L 2496 4078 
C 3539 4078 3558 3564 3558 3194 
z
" transform="scale(0.015625)"/>
       <path id="LMRoman12-Bold-76" d="M 3642 2549 
L 3642 2816 
C 3411 2816 3398 2816 3136 2816 
L 2586 2816 
L 2586 2549 
C 2758 2549 2899 2517 2899 2472 
C 2899 2472 2899 2460 2867 2396 
L 2118 763 
L 1293 2549 
L 1645 2549 
L 1645 2822 
C 1498 2816 1050 2816 877 2816 
C 691 2816 320 2816 154 2822 
L 154 2549 
L 557 2549 
L 1683 121 
C 1741 0 1754 -32 1901 -32 
C 2003 -32 2054 -19 2112 108 
L 3168 2402 
C 3213 2498 3238 2549 3642 2549 
z
" transform="scale(0.015625)"/>
       <path id="LMRoman12-Bold-45" d="M 4518 1722 
L 4250 1722 
C 4115 771 3878 273 2765 273 
L 1766 273 
L 1766 2112 
L 2144 2112 
C 2758 2112 2822 1853 2822 1375 
L 3091 1375 
L 3091 3136 
L 2822 3136 
C 2822 2655 2758 2385 2144 2385 
L 1766 2385 
L 1766 4078 
L 2765 4078 
C 3744 4078 3955 3659 4051 2828 
L 4320 2828 
L 4134 4352 
L 243 4352 
L 243 4078 
L 922 4078 
L 922 273 
L 243 273 
L 243 0 
L 4243 0 
L 4518 1722 
z
" transform="scale(0.015625)"/>
       <path id="LMRoman12-Bold-72" d="M 2733 2337 
C 2733 2658 2400 2834 2093 2834 
C 1587 2834 1370 2401 1280 2137 
L 1274 2137 
L 1274 2816 
L 224 2816 
L 224 2517 
C 621 2517 666 2517 666 2270 
L 666 260 
L 224 260 
L 224 -13 
C 371 0 851 0 1030 0 
C 1216 0 1734 0 1888 -13 
L 1888 260 
L 1331 260 
L 1331 1411 
C 1331 1619 1376 2624 2125 2624 
C 2035 2555 1990 2448 1990 2336 
C 1990 2079 2202 1972 2362 1972 
C 2522 1972 2733 2079 2733 2337 
z
" transform="scale(0.015625)"/>
      </defs>
      <use xlink:href="#LMRoman12-Bold-4d" transform="scale(0.996264)"/>
      <use xlink:href="#LMRoman12-Bold-65" transform="translate(106.317937 0) scale(0.996264)"/>
      <use xlink:href="#LMRoman12-Bold-64" transform="translate(157.459484 0) scale(0.996264)"/>
      <use xlink:href="#LMRoman12-Bold-69" transform="translate(219.725985 0) scale(0.996264)"/>
      <use xlink:href="#LMRoman12-Bold-61" transform="translate(250.859235 0) scale(0.996264)"/>
      <use xlink:href="#LMRoman12-Bold-6e" transform="translate(305.342423 0) scale(0.996264)"/>
      <use xlink:href="#LMRoman12-Bold-41" transform="translate(404.968824 0) scale(0.996264)"/>
      <use xlink:href="#LMRoman12-Bold-62" transform="translate(489.601418 0) scale(0.996264)"/>
      <use xlink:href="#LMRoman12-Bold-73" transform="translate(551.867919 0) scale(0.996264)"/>
      <use xlink:href="#LMRoman12-Bold-6f" transform="translate(596.077074 0) scale(0.996264)"/>
      <use xlink:href="#LMRoman12-Bold-6c" transform="translate(652.116924 0) scale(0.996264)"/>
      <use xlink:href="#LMRoman12-Bold-75" transform="translate(683.250175 0) scale(0.996264)"/>
      <use xlink:href="#LMRoman12-Bold-74" transform="translate(745.516675 0) scale(0.996264)"/>
      <use xlink:href="#LMRoman12-Bold-65" transform="translate(789.103226 0) scale(0.996264)"/>
      <use xlink:href="#LMRoman12-Bold-52" transform="translate(877.604673 0) scale(0.996264)"/>
      <use xlink:href="#LMRoman12-Bold-65" transform="translate(961.207909 0) scale(0.996264)"/>
      <use xlink:href="#LMRoman12-Bold-6c" transform="translate(1012.349457 0) scale(0.996264)"/>
      <use xlink:href="#LMRoman12-Bold-61" transform="translate(1043.482707 0) scale(0.996264)"/>
      <use xlink:href="#LMRoman12-Bold-74" transform="translate(1097.965895 0) scale(0.996264)"/>
      <use xlink:href="#LMRoman12-Bold-69" transform="translate(1141.552446 0) scale(0.996264)"/>
      <use xlink:href="#LMRoman12-Bold-76" transform="translate(1172.685696 0) scale(0.996264)"/>
      <use xlink:href="#LMRoman12-Bold-65" transform="translate(1228.725546 0) scale(0.996264)"/>
      <use xlink:href="#LMRoman12-Bold-45" transform="translate(1317.226994 0) scale(0.996264)"/>
      <use xlink:href="#LMRoman12-Bold-72" transform="translate(1390.792691 0) scale(0.996264)"/>
      <use xlink:href="#LMRoman12-Bold-72" transform="translate(1436.571049 0) scale(0.996264)"/>
      <use xlink:href="#LMRoman12-Bold-6f" transform="translate(1482.349408 0) scale(0.996264)"/>
      <use xlink:href="#LMRoman12-Bold-72" transform="translate(1538.389259 0) scale(0.996264)"/>
     </g>
    </g>
   </g>
   <g id="patch_21">
    <path d="M 49.393753 479.341211 
L 49.393753 58.214166 
" style="fill: none; stroke: #000000; stroke-width: 0.8; stroke-linejoin: miter; stroke-linecap: square"/>
   </g>
   <g id="patch_22">
    <path d="M 838.8 479.341211 
L 838.8 58.214166 
" style="fill: none; stroke: #000000; stroke-width: 0.8; stroke-linejoin: miter; stroke-linecap: square"/>
   </g>
   <g id="patch_23">
    <path d="M 49.393753 479.341211 
L 838.8 479.341211 
" style="fill: none; stroke: #000000; stroke-width: 0.8; stroke-linejoin: miter; stroke-linecap: square"/>
   </g>
   <g id="patch_24">
    <path d="M 49.393753 58.214166 
L 838.8 58.214166 
" style="fill: none; stroke: #000000; stroke-width: 0.8; stroke-linejoin: miter; stroke-linecap: square"/>
   </g>
   <g id="legend_1">
    <g id="text_17">
     <!-- Method -->
     <g transform="translate(415.241963 82.230334) scale(0.15 -0.15)">
      <defs>
       <path id="LMRoman12-Bold-68" d="M 3840 -13 
L 3840 260 
L 3398 260 
L 3398 1924 
C 3398 2525 3136 2834 2432 2834 
C 1786 2834 1472 2384 1382 2194 
L 1376 2194 
L 1376 4352 
L 269 4352 
L 269 4053 
C 666 4053 710 4053 710 3807 
L 710 260 
L 269 260 
L 269 -13 
C 416 0 877 0 1056 0 
C 1235 0 1702 0 1850 -13 
L 1850 260 
L 1408 260 
L 1408 1607 
C 1408 2289 1920 2624 2330 2624 
C 2566 2624 2701 2473 2701 1993 
L 2701 260 
L 2259 260 
L 2259 -13 
C 2406 0 2867 0 3046 0 
C 3226 0 3693 0 3840 -13 
z
" transform="scale(0.015625)"/>
      </defs>
      <use xlink:href="#LMRoman12-Bold-4d" transform="scale(0.996264)"/>
      <use xlink:href="#LMRoman12-Bold-65" transform="translate(106.317937 0) scale(0.996264)"/>
      <use xlink:href="#LMRoman12-Bold-74" transform="translate(157.459484 0) scale(0.996264)"/>
      <use xlink:href="#LMRoman12-Bold-68" transform="translate(201.046035 0) scale(0.996264)"/>
      <use xlink:href="#LMRoman12-Bold-6f" transform="translate(263.312535 0) scale(0.996264)"/>
      <use xlink:href="#LMRoman12-Bold-64" transform="translate(322.465711 0) scale(0.996264)"/>
     </g>
    </g>
    <g id="patch_25">
     <path d="M 333.39483 103.844049 
L 363.39483 103.844049 
L 363.39483 93.344049 
L 333.39483 93.344049 
z
" style="fill: #0000ff; stroke: #000000; stroke-width: 0.5; stroke-linejoin: miter"/>
    </g>
    <g id="text_18">
     <!-- Ours (Patch-Calibrated) -->
     <g transform="translate(375.39483 103.844049) scale(0.15 -0.15)">
      <defs>
       <path id="LMRoman12-Bold-4f" d="M 5005 2176 
C 5005 3524 4122 4453 2701 4453 
C 1274 4453 397 3517 397 2176 
C 397 833 1293 -64 2701 -64 
C 4109 -64 5005 833 5005 2176 
z
M 4102 2265 
C 4102 1634 4032 1107 3712 667 
C 3552 451 3200 177 2701 177 
C 2285 177 1882 374 1638 737 
C 1331 1202 1299 1800 1299 2265 
C 1299 2653 1318 3187 1581 3620 
C 1862 4065 2323 4224 2701 4224 
C 3219 4224 3603 3951 3789 3665 
C 4026 3295 4102 2901 4102 2265 
z
" transform="scale(0.015625)"/>
       <path id="LMRoman12-Bold-50" d="M 4518 3128 
C 4518 3812 3910 4352 2854 4352 
L 243 4352 
L 243 4078 
L 922 4078 
L 922 267 
L 243 267 
L 243 0 
C 429 0 1114 0 1344 0 
C 1574 0 2259 0 2445 0 
L 2445 267 
L 1766 267 
L 1766 1934 
L 2854 1934 
C 3923 1934 4518 2474 4518 3128 
z
M 3616 3127 
C 3616 2709 3616 2176 2624 2176 
L 1734 2176 
L 1734 4078 
L 2624 4078 
C 3616 4078 3616 3558 3616 3127 
z
" transform="scale(0.015625)"/>
       <path id="LMRoman12-Bold-43" d="M 4794 1456 
C 4794 1564 4755 1564 4659 1564 
C 4595 1564 4531 1564 4525 1501 
C 4467 539 3642 209 3066 209 
C 2650 209 2086 324 1728 722 
C 1504 963 1299 1310 1299 2184 
C 1299 2805 1395 3267 1696 3621 
C 2106 4096 2746 4160 3053 4160 
C 3533 4160 4307 3893 4499 2779 
C 4512 2722 4570 2722 4646 2722 
C 4794 2722 4794 2735 4794 2887 
L 4794 4269 
C 4794 4415 4794 4434 4653 4434 
L 4173 3976 
C 3814 4280 3386 4433 2912 4433 
C 1382 4433 397 3514 397 2184 
C 397 879 1350 -64 2918 -64 
C 4058 -64 4794 708 4794 1456 
z
" transform="scale(0.015625)"/>
      </defs>
      <use xlink:href="#LMRoman12-Bold-4f" transform="scale(0.996264)"/>
      <use xlink:href="#LMRoman12-Bold-75" transform="translate(84.176069 0) scale(0.996264)"/>
      <use xlink:href="#LMRoman12-Bold-72" transform="translate(146.44257 0) scale(0.996264)"/>
      <use xlink:href="#LMRoman12-Bold-73" transform="translate(192.220929 0) scale(0.996264)"/>
      <use xlink:href="#LMRoman12-Bold-28" transform="translate(273.789984 0) scale(0.996264)"/>
      <use xlink:href="#LMRoman12-Bold-50" transform="translate(317.376534 0) scale(0.996264)"/>
      <use xlink:href="#LMRoman12-Bold-61" transform="translate(390.82612 0) scale(0.996264)"/>
      <use xlink:href="#LMRoman12-Bold-74" transform="translate(445.309308 0) scale(0.996264)"/>
      <use xlink:href="#LMRoman12-Bold-63" transform="translate(488.895858 0) scale(0.996264)"/>
      <use xlink:href="#LMRoman12-Bold-68" transform="translate(535.595734 0) scale(0.996264)"/>
      <use xlink:href="#LMRoman12-Bold-2d" transform="translate(597.862234 0) scale(0.996264)"/>
      <use xlink:href="#LMRoman12-Bold-43" transform="translate(635.222135 0) scale(0.996264)"/>
      <use xlink:href="#LMRoman12-Bold-61" transform="translate(716.168585 0) scale(0.996264)"/>
      <use xlink:href="#LMRoman12-Bold-6c" transform="translate(770.651773 0) scale(0.996264)"/>
      <use xlink:href="#LMRoman12-Bold-69" transform="translate(801.785024 0) scale(0.996264)"/>
      <use xlink:href="#LMRoman12-Bold-62" transform="translate(832.918274 0) scale(0.996264)"/>
      <use xlink:href="#LMRoman12-Bold-72" transform="translate(895.184775 0) scale(0.996264)"/>
      <use xlink:href="#LMRoman12-Bold-61" transform="translate(940.963133 0) scale(0.996264)"/>
      <use xlink:href="#LMRoman12-Bold-74" transform="translate(995.446321 0) scale(0.996264)"/>
      <use xlink:href="#LMRoman12-Bold-65" transform="translate(1039.032872 0) scale(0.996264)"/>
      <use xlink:href="#LMRoman12-Bold-64" transform="translate(1090.174419 0) scale(0.996264)"/>
      <use xlink:href="#LMRoman12-Bold-29" transform="translate(1152.44092 0) scale(0.996264)"/>
     </g>
    </g>
    <g id="patch_26">
     <path d="M 333.39483 125.596206 
L 363.39483 125.596206 
L 363.39483 115.096206 
L 333.39483 115.096206 
z
" style="fill: #dcdcff; stroke: #000000; stroke-width: 0.5; stroke-linejoin: miter"/>
    </g>
    <g id="text_19">
     <!-- AUDIT-DA -->
     <g transform="translate(375.39483 125.596206) scale(0.15 -0.15)">
      <defs>
       <path id="LMRoman12-Bold-55" d="M 5286 4091 
L 5286 4365 
C 5139 4352 4640 4352 4461 4352 
C 4282 4352 3782 4352 3635 4365 
L 3635 4091 
L 3782 4091 
C 3955 4091 3968 4091 4122 4072 
C 4307 4047 4314 4040 4314 3900 
L 4314 1473 
C 4314 562 3667 192 2912 192 
C 1792 192 1766 1046 1766 1416 
L 1766 4091 
L 2445 4091 
L 2445 4352 
C 2259 4352 1574 4352 1344 4352 
C 1114 4352 429 4352 243 4352 
L 243 4091 
L 922 4091 
L 922 1460 
C 922 619 1600 -81 2886 -81 
C 4070 -81 4608 652 4608 1456 
L 4608 3905 
C 4608 4046 4614 4053 4781 4078 
C 4896 4091 5024 4091 5139 4091 
L 5286 4091 
z
" transform="scale(0.015625)"/>
       <path id="LMRoman12-Bold-49" d="M 2477 0 
L 2477 267 
L 1760 267 
L 1760 4085 
L 2477 4085 
L 2477 4352 
C 2246 4352 1606 4352 1338 4352 
C 1069 4352 429 4352 198 4352 
L 198 4085 
L 915 4085 
L 915 267 
L 198 267 
L 198 0 
C 429 0 1069 0 1338 0 
C 1606 0 2246 0 2477 0 
z
" transform="scale(0.015625)"/>
       <path id="LMRoman12-Bold-54" d="M 4736 2797 
L 4608 4305 
L 390 4305 
L 262 2797 
L 531 2797 
C 589 3491 640 4032 1562 4032 
L 2080 4032 
L 2080 267 
L 1114 267 
L 1114 0 
L 2502 0 
L 3891 0 
L 3891 267 
L 2925 267 
L 2925 4032 
L 3437 4032 
C 4358 4032 4410 3497 4467 2797 
L 4736 2797 
z
" transform="scale(0.015625)"/>
      </defs>
      <use xlink:href="#LMRoman12-Bold-41" transform="scale(0.996264)"/>
      <use xlink:href="#LMRoman12-Bold-55" transform="translate(81.519269 0) scale(0.996264)"/>
      <use xlink:href="#LMRoman12-Bold-44" transform="translate(167.65456 0) scale(0.996264)"/>
      <use xlink:href="#LMRoman12-Bold-49" transform="translate(253.557445 0) scale(0.996264)"/>
      <use xlink:href="#LMRoman12-Bold-54" transform="translate(295.300871 0) scale(0.996264)"/>
      <use xlink:href="#LMRoman12-Bold-2d" transform="translate(373.25029 0) scale(0.996264)"/>
      <use xlink:href="#LMRoman12-Bold-44" transform="translate(410.61019 0) scale(0.996264)"/>
      <use xlink:href="#LMRoman12-Bold-41" transform="translate(493.399751 0) scale(0.996264)"/>
     </g>
    </g>
    <g id="patch_27">
     <path d="M 333.39483 146.518118 
L 363.39483 146.518118 
L 363.39483 136.018118 
L 333.39483 136.018118 
z
" style="fill: #ff0000; stroke: #000000; stroke-width: 0.5; stroke-linejoin: miter"/>
    </g>
    <g id="text_20">
     <!-- AUDIT-DPT -->
     <g transform="translate(375.39483 146.518118) scale(0.15 -0.15)">
      <use xlink:href="#LMRoman12-Bold-41" transform="scale(0.996264)"/>
      <use xlink:href="#LMRoman12-Bold-55" transform="translate(81.519269 0) scale(0.996264)"/>
      <use xlink:href="#LMRoman12-Bold-44" transform="translate(167.65456 0) scale(0.996264)"/>
      <use xlink:href="#LMRoman12-Bold-49" transform="translate(253.557445 0) scale(0.996264)"/>
      <use xlink:href="#LMRoman12-Bold-54" transform="translate(295.300871 0) scale(0.996264)"/>
      <use xlink:href="#LMRoman12-Bold-2d" transform="translate(373.25029 0) scale(0.996264)"/>
      <use xlink:href="#LMRoman12-Bold-44" transform="translate(410.61019 0) scale(0.996264)"/>
      <use xlink:href="#LMRoman12-Bold-50" transform="translate(496.513076 0) scale(0.996264)"/>
      <use xlink:href="#LMRoman12-Bold-54" transform="translate(573.075986 0) scale(0.996264)"/>
     </g>
    </g>
   </g>
  </g>
  <g id="text_21">
   <!-- \begin{tabular}{c} Ours (Patch-Calibrated): med=0.120, MAD=0.119 \\ AUDIT-DA: med=0.418, MAD=0.279 \textbar\ AUDIT-DPT: med=0.388, MAD=0.275 \end{tabular} -->
   <g transform="translate(87.525447 30.487732) scale(0.17 -0.17)">
    <defs>
     <path id="LMRoman12-Bold-3a" d="M 1459 2358 
C 1459 2619 1248 2816 998 2816 
C 749 2816 538 2619 538 2358 
C 538 2098 749 1900 998 1900 
C 1248 1900 1459 2098 1459 2358 
z
M 1459 458 
C 1459 718 1248 916 998 916 
C 749 916 538 718 538 458 
C 538 197 749 0 998 0 
C 1248 0 1459 197 1459 458 
z
" transform="scale(0.015625)"/>
     <path id="LMRoman12-Bold-3d" d="M 5197 2261 
C 5197 2432 5024 2432 4941 2432 
L 653 2432 
C 570 2432 397 2432 397 2261 
C 397 2083 563 2083 659 2083 
L 4934 2083 
C 5030 2083 5197 2083 5197 2261 
z
M 5197 876 
C 5197 1054 5030 1054 4934 1054 
L 659 1054 
C 563 1054 397 1054 397 876 
C 397 704 570 704 653 704 
L 4941 704 
C 5024 704 5197 704 5197 876 
z
" transform="scale(0.015625)"/>
     <path id="LMRoman12-Bold-2e" d="M 1459 458 
C 1459 718 1248 916 998 916 
C 749 916 538 718 538 458 
C 538 197 749 0 998 0 
C 1248 0 1459 197 1459 458 
z
" transform="scale(0.015625)"/>
     <path id="LMRoman12-Bold-2c" d="M 1536 159 
C 1536 563 1344 916 992 916 
C 710 916 538 706 538 458 
C 538 229 698 0 998 0 
C 1184 0 1299 95 1325 121 
C 1318 -56 1286 -577 762 -1015 
C 717 -1053 704 -1065 704 -1097 
C 704 -1154 781 -1216 819 -1216 
C 902 -1216 1536 -686 1536 159 
z
" transform="scale(0.015625)"/>
     <path id="LMRoman12-Bold-34" d="M 3392 -6 
L 3392 267 
L 2771 267 
L 2771 1006 
L 3392 1006 
L 3392 1280 
L 2771 1280 
L 2771 4007 
C 2771 4166 2765 4192 2605 4192 
C 2490 4192 2477 4192 2400 4096 
L 198 1280 
L 198 1006 
L 2016 1006 
L 2016 267 
L 1318 267 
L 1318 0 
C 1504 0 2138 0 2368 0 
C 2586 0 3219 0 3392 -6 
z
M 2074 1280 
L 493 1280 
L 2074 3302 
L 2074 1280 
z
" transform="scale(0.015625)"/>
     <path id="LMRoman12-Bold-37" d="M 3488 4155 
L 2138 4155 
C 2093 4155 1139 4155 1062 4168 
C 902 4193 890 4260 877 4322 
L 608 4322 
L 397 2752 
L 666 2752 
C 672 2817 723 3280 832 3353 
C 890 3392 1421 3392 1523 3392 
L 2682 3392 
C 1939 2487 1856 2384 1658 2005 
C 1280 1259 1222 681 1222 366 
C 1222 -64 1549 -64 1600 -64 
C 1760 -64 1850 19 1894 64 
C 1978 168 1978 245 1978 528 
C 1978 1511 2067 2232 2470 2714 
L 3430 3865 
C 3488 3929 3488 3943 3488 4155 
z
" transform="scale(0.015625)"/>
     <path id="LMMathSymbols10-Bold-6a" d="M 1216 -1318 
L 1216 4518 
C 1216 4608 1216 4800 1024 4800 
C 826 4800 826 4614 826 4518 
L 826 -1318 
C 826 -1408 826 -1600 1018 -1600 
C 1216 -1600 1216 -1414 1216 -1318 
z
" transform="scale(0.015625)"/>
    </defs>
    <use xlink:href="#LMRoman12-Bold-4f" transform="translate(716.350368 62.266881) scale(0.996264)"/>
    <use xlink:href="#LMRoman12-Bold-75" transform="translate(800.526438 62.266881) scale(0.996264)"/>
    <use xlink:href="#LMRoman12-Bold-72" transform="translate(862.792938 62.266881) scale(0.996264)"/>
    <use xlink:href="#LMRoman12-Bold-73" transform="translate(908.571297 62.266881) scale(0.996264)"/>
    <use xlink:href="#LMRoman12-Bold-28" transform="translate(990.140352 62.266881) scale(0.996264)"/>
    <use xlink:href="#LMRoman12-Bold-50" transform="translate(1033.726902 62.266881) scale(0.996264)"/>
    <use xlink:href="#LMRoman12-Bold-61" transform="translate(1107.176488 62.266881) scale(0.996264)"/>
    <use xlink:href="#LMRoman12-Bold-74" transform="translate(1161.659676 62.266881) scale(0.996264)"/>
    <use xlink:href="#LMRoman12-Bold-63" transform="translate(1205.246226 62.266881) scale(0.996264)"/>
    <use xlink:href="#LMRoman12-Bold-68" transform="translate(1251.946102 62.266881) scale(0.996264)"/>
    <use xlink:href="#LMRoman12-Bold-2d" transform="translate(1314.212602 62.266881) scale(0.996264)"/>
    <use xlink:href="#LMRoman12-Bold-43" transform="translate(1351.572503 62.266881) scale(0.996264)"/>
    <use xlink:href="#LMRoman12-Bold-61" transform="translate(1432.518954 62.266881) scale(0.996264)"/>
    <use xlink:href="#LMRoman12-Bold-6c" transform="translate(1487.002142 62.266881) scale(0.996264)"/>
    <use xlink:href="#LMRoman12-Bold-69" transform="translate(1518.135392 62.266881) scale(0.996264)"/>
    <use xlink:href="#LMRoman12-Bold-62" transform="translate(1549.268642 62.266881) scale(0.996264)"/>
    <use xlink:href="#LMRoman12-Bold-72" transform="translate(1611.535143 62.266881) scale(0.996264)"/>
    <use xlink:href="#LMRoman12-Bold-61" transform="translate(1657.313501 62.266881) scale(0.996264)"/>
    <use xlink:href="#LMRoman12-Bold-74" transform="translate(1711.79669 62.266881) scale(0.996264)"/>
    <use xlink:href="#LMRoman12-Bold-65" transform="translate(1755.38324 62.266881) scale(0.996264)"/>
    <use xlink:href="#LMRoman12-Bold-64" transform="translate(1806.524787 62.266881) scale(0.996264)"/>
    <use xlink:href="#LMRoman12-Bold-29" transform="translate(1868.791288 62.266881) scale(0.996264)"/>
    <use xlink:href="#LMRoman12-Bold-3a" transform="translate(1912.377838 62.266881) scale(0.996264)"/>
    <use xlink:href="#LMRoman12-Bold-6d" transform="translate(1993.324289 62.266881) scale(0.996264)"/>
    <use xlink:href="#LMRoman12-Bold-65" transform="translate(2086.72404 62.266881) scale(0.996264)"/>
    <use xlink:href="#LMRoman12-Bold-64" transform="translate(2137.865588 62.266881) scale(0.996264)"/>
    <use xlink:href="#LMRoman12-Bold-3d" transform="translate(2200.132088 62.266881) scale(0.996264)"/>
    <use xlink:href="#LMRoman12-Bold-30" transform="translate(2287.305189 62.266881) scale(0.996264)"/>
    <use xlink:href="#LMRoman12-Bold-2e" transform="translate(2343.34504 62.266881) scale(0.996264)"/>
    <use xlink:href="#LMRoman12-Bold-31" transform="translate(2374.47829 62.266881) scale(0.996264)"/>
    <use xlink:href="#LMRoman12-Bold-32" transform="translate(2430.518141 62.266881) scale(0.996264)"/>
    <use xlink:href="#LMRoman12-Bold-30" transform="translate(2486.557991 62.266881) scale(0.996264)"/>
    <use xlink:href="#LMRoman12-Bold-2c" transform="translate(2542.597842 62.266881) scale(0.996264)"/>
    <use xlink:href="#LMRoman12-Bold-4d" transform="translate(2611.090992 62.266881) scale(0.996264)"/>
    <use xlink:href="#LMRoman12-Bold-41" transform="translate(2717.408929 62.266881) scale(0.996264)"/>
    <use xlink:href="#LMRoman12-Bold-44" transform="translate(2802.041523 62.266881) scale(0.996264)"/>
    <use xlink:href="#LMRoman12-Bold-3d" transform="translate(2887.944409 62.266881) scale(0.996264)"/>
    <use xlink:href="#LMRoman12-Bold-30" transform="translate(2975.11751 62.266881) scale(0.996264)"/>
    <use xlink:href="#LMRoman12-Bold-2e" transform="translate(3031.15736 62.266881) scale(0.996264)"/>
    <use xlink:href="#LMRoman12-Bold-31" transform="translate(3062.290611 62.266881) scale(0.996264)"/>
    <use xlink:href="#LMRoman12-Bold-31" transform="translate(3118.330461 62.266881) scale(0.996264)"/>
    <use xlink:href="#LMRoman12-Bold-39" transform="translate(3174.370312 62.266881) scale(0.996264)"/>
    <use xlink:href="#LMRoman12-Bold-41" transform="translate(0 -62.266121) scale(0.996264)"/>
    <use xlink:href="#LMRoman12-Bold-55" transform="translate(81.519269 -62.266121) scale(0.996264)"/>
    <use xlink:href="#LMRoman12-Bold-44" transform="translate(167.65456 -62.266121) scale(0.996264)"/>
    <use xlink:href="#LMRoman12-Bold-49" transform="translate(253.557445 -62.266121) scale(0.996264)"/>
    <use xlink:href="#LMRoman12-Bold-54" transform="translate(295.300871 -62.266121) scale(0.996264)"/>
    <use xlink:href="#LMRoman12-Bold-2d" transform="translate(373.25029 -62.266121) scale(0.996264)"/>
    <use xlink:href="#LMRoman12-Bold-44" transform="translate(410.61019 -62.266121) scale(0.996264)"/>
    <use xlink:href="#LMRoman12-Bold-41" transform="translate(493.399751 -62.266121) scale(0.996264)"/>
    <use xlink:href="#LMRoman12-Bold-3a" transform="translate(578.032345 -62.266121) scale(0.996264)"/>
    <use xlink:href="#LMRoman12-Bold-6d" transform="translate(646.525496 -62.266121) scale(0.996264)"/>
    <use xlink:href="#LMRoman12-Bold-65" transform="translate(739.925247 -62.266121) scale(0.996264)"/>
    <use xlink:href="#LMRoman12-Bold-64" transform="translate(791.066794 -62.266121) scale(0.996264)"/>
    <use xlink:href="#LMRoman12-Bold-3d" transform="translate(853.333295 -62.266121) scale(0.996264)"/>
    <use xlink:href="#LMRoman12-Bold-30" transform="translate(940.506396 -62.266121) scale(0.996264)"/>
    <use xlink:href="#LMRoman12-Bold-2e" transform="translate(996.546246 -62.266121) scale(0.996264)"/>
    <use xlink:href="#LMRoman12-Bold-34" transform="translate(1027.679497 -62.266121) scale(0.996264)"/>
    <use xlink:href="#LMRoman12-Bold-31" transform="translate(1083.719347 -62.266121) scale(0.996264)"/>
    <use xlink:href="#LMRoman12-Bold-38" transform="translate(1139.759198 -62.266121) scale(0.996264)"/>
    <use xlink:href="#LMRoman12-Bold-2c" transform="translate(1195.799048 -62.266121) scale(0.996264)"/>
    <use xlink:href="#LMRoman12-Bold-4d" transform="translate(1264.292199 -62.266121) scale(0.996264)"/>
    <use xlink:href="#LMRoman12-Bold-41" transform="translate(1370.610136 -62.266121) scale(0.996264)"/>
    <use xlink:href="#LMRoman12-Bold-44" transform="translate(1455.24273 -62.266121) scale(0.996264)"/>
    <use xlink:href="#LMRoman12-Bold-3d" transform="translate(1541.145615 -62.266121) scale(0.996264)"/>
    <use xlink:href="#LMRoman12-Bold-30" transform="translate(1628.318716 -62.266121) scale(0.996264)"/>
    <use xlink:href="#LMRoman12-Bold-2e" transform="translate(1684.358567 -62.266121) scale(0.996264)"/>
    <use xlink:href="#LMRoman12-Bold-32" transform="translate(1715.491817 -62.266121) scale(0.996264)"/>
    <use xlink:href="#LMRoman12-Bold-37" transform="translate(1771.531668 -62.266121) scale(0.996264)"/>
    <use xlink:href="#LMRoman12-Bold-39" transform="translate(1827.571518 -62.266121) scale(0.996264)"/>
    <use xlink:href="#LMMathSymbols10-Bold-6a" transform="translate(1920.971269 -62.266121) scale(0.996264)"/>
    <use xlink:href="#LMRoman12-Bold-41" transform="translate(1990.156101 -62.266121) scale(0.996264)"/>
    <use xlink:href="#LMRoman12-Bold-55" transform="translate(2071.67537 -62.266121) scale(0.996264)"/>
    <use xlink:href="#LMRoman12-Bold-44" transform="translate(2157.810661 -62.266121) scale(0.996264)"/>
    <use xlink:href="#LMRoman12-Bold-49" transform="translate(2243.713546 -62.266121) scale(0.996264)"/>
    <use xlink:href="#LMRoman12-Bold-54" transform="translate(2285.456972 -62.266121) scale(0.996264)"/>
    <use xlink:href="#LMRoman12-Bold-2d" transform="translate(2363.406391 -62.266121) scale(0.996264)"/>
    <use xlink:href="#LMRoman12-Bold-44" transform="translate(2400.766291 -62.266121) scale(0.996264)"/>
    <use xlink:href="#LMRoman12-Bold-50" transform="translate(2486.669177 -62.266121) scale(0.996264)"/>
    <use xlink:href="#LMRoman12-Bold-54" transform="translate(2563.232087 -62.266121) scale(0.996264)"/>
    <use xlink:href="#LMRoman12-Bold-3a" transform="translate(2641.181507 -62.266121) scale(0.996264)"/>
    <use xlink:href="#LMRoman12-Bold-6d" transform="translate(2709.674658 -62.266121) scale(0.996264)"/>
    <use xlink:href="#LMRoman12-Bold-65" transform="translate(2803.074408 -62.266121) scale(0.996264)"/>
    <use xlink:href="#LMRoman12-Bold-64" transform="translate(2854.215956 -62.266121) scale(0.996264)"/>
    <use xlink:href="#LMRoman12-Bold-3d" transform="translate(2916.482457 -62.266121) scale(0.996264)"/>
    <use xlink:href="#LMRoman12-Bold-30" transform="translate(3003.655557 -62.266121) scale(0.996264)"/>
    <use xlink:href="#LMRoman12-Bold-2e" transform="translate(3059.695408 -62.266121) scale(0.996264)"/>
    <use xlink:href="#LMRoman12-Bold-33" transform="translate(3090.828658 -62.266121) scale(0.996264)"/>
    <use xlink:href="#LMRoman12-Bold-38" transform="translate(3146.868509 -62.266121) scale(0.996264)"/>
    <use xlink:href="#LMRoman12-Bold-38" transform="translate(3202.908359 -62.266121) scale(0.996264)"/>
    <use xlink:href="#LMRoman12-Bold-2c" transform="translate(3258.94821 -62.266121) scale(0.996264)"/>
    <use xlink:href="#LMRoman12-Bold-4d" transform="translate(3327.441361 -62.266121) scale(0.996264)"/>
    <use xlink:href="#LMRoman12-Bold-41" transform="translate(3433.759297 -62.266121) scale(0.996264)"/>
    <use xlink:href="#LMRoman12-Bold-44" transform="translate(3518.391892 -62.266121) scale(0.996264)"/>
    <use xlink:href="#LMRoman12-Bold-3d" transform="translate(3604.294777 -62.266121) scale(0.996264)"/>
    <use xlink:href="#LMRoman12-Bold-30" transform="translate(3691.467878 -62.266121) scale(0.996264)"/>
    <use xlink:href="#LMRoman12-Bold-2e" transform="translate(3747.507729 -62.266121) scale(0.996264)"/>
    <use xlink:href="#LMRoman12-Bold-32" transform="translate(3778.640979 -62.266121) scale(0.996264)"/>
    <use xlink:href="#LMRoman12-Bold-37" transform="translate(3834.680829 -62.266121) scale(0.996264)"/>
    <use xlink:href="#LMRoman12-Bold-35" transform="translate(3890.72068 -62.266121) scale(0.996264)"/>
   </g>
  </g>
 </g>
 <defs>
  <clipPath id="p8f64361da1">
   <rect x="49.393753" y="58.214166" width="789.406247" height="421.127045"/>
  </clipPath>
 </defs>
</svg>
