<?xml version="1.0" encoding="utf-8" standalone="no"?>
<!DOCTYPE svg PUBLIC "-//W3C//DTD SVG 1.1//EN"
  "http://www.w3.org/Graphics/SVG/1.1/DTD/svg11.dtd">
<svg xmlns:xlink="http://www.w3.org/1999/xlink" width="720pt" height="504pt" viewBox="0 0 720 504" xmlns="http://www.w3.org/2000/svg" version="1.1">
 <metadata>
  <rdf:RDF xmlns:dc="http://purl.org/dc/elements/1.1/" xmlns:cc="http://creativecommons.org/ns#" xmlns:rdf="http://www.w3.org/1999/02/22-rdf-syntax-ns#">
   <cc:Work>
    <dc:type rdf:resource="http://purl.org/dc/dcmitype/StillImage"/>
    <dc:date>2026-03-19T15:55:55.958640</dc:date>
    <dc:format>image/svg+xml</dc:format>
    <dc:creator>
     <cc:Agent>
      <dc:title>Matplotlib v3.8.4, https://matplotlib.org/</dc:title>
     </cc:Agent>
    </dc:creator>
   </cc:Work>
  </rdf:RDF>
 </metadata>
 <defs>
  <style type="text/css">*{stroke-linejoin: round; stroke-linecap: butt}</style>
 </defs>
 <g id="figure_1">
  <g id="patch_1">
   <path d="M 0 504 
L 720 504 
L 720 0 
L 0 0 
z
" style="fill: #ffffff"/>
  </g>
  <g id="axes_1">
   <g id="patch_2">
    <path d="M 89.989624 418.723521 
L 685.436114 418.723521 
L 685.436114 27 
L 89.989624 27 
z
" style="fill: #ffffff"/>
   </g>
   <g id="matplotlib.axis_1">
    <g id="xtick_1">
     <g id="line2d_1">
      <defs>
       <path id="m0a101339b9" d="M 0 0 
L 0 3.5 
" style="stroke: #000000; stroke-width: 0.8"/>
      </defs>
      <g>
       <use xlink:href="#m0a101339b9" x="117.055374" y="418.723521" style="stroke: #000000; stroke-width: 0.8"/>
      </g>
     </g>
     <g id="text_1">
      <!-- $\mathdefault{0}$ -->
      <g transform="translate(111.344011 443.250477) scale(0.25 -0.25)">
       <defs>
        <path id="LMRoman17-Regular-30" d="M 2688 2025 
C 2688 2416 2682 3080 2413 3591 
C 2176 4039 1798 4198 1466 4198 
C 1158 4198 768 4058 525 3597 
C 269 3118 243 2524 243 2025 
C 243 1661 250 1106 448 619 
C 723 -39 1216 -128 1466 -128 
C 1760 -128 2208 -7 2470 600 
C 2662 1042 2688 1559 2688 2025 
z
M 2278 2096 
C 2278 1680 2278 1169 2202 792 
C 2067 95 1690 -26 1466 -26 
C 1056 -26 813 325 723 812 
C 653 1188 653 1738 653 2096 
C 653 2588 653 2997 736 3387 
C 858 3929 1216 4096 1466 4096 
C 1728 4096 2067 3923 2189 3400 
C 2272 3036 2278 2607 2278 2096 
z
" transform="scale(0.015625)"/>
       </defs>
       <use xlink:href="#LMRoman17-Regular-30" transform="scale(0.996264)"/>
      </g>
     </g>
    </g>
    <g id="xtick_2">
     <g id="line2d_2">
      <g>
       <use xlink:href="#m0a101339b9" x="258.121109" y="418.723521" style="stroke: #000000; stroke-width: 0.8"/>
      </g>
     </g>
     <g id="text_2">
      <!-- $\mathdefault{5}$ -->
      <g transform="translate(252.409746 443.250477) scale(0.25 -0.25)">
       <defs>
        <path id="LMRoman17-Regular-35" d="M 2669 1264 
C 2669 2030 2170 2624 1549 2624 
C 1222 2624 947 2503 730 2274 
L 730 3692 
C 794 3666 1056 3584 1325 3584 
C 1920 3584 2246 3911 2432 4100 
C 2432 4157 2432 4192 2394 4192 
C 2394 4192 2374 4192 2323 4163 
C 2099 4058 1837 3973 1517 3973 
C 1325 3973 1037 3999 723 4139 
C 653 4171 634 4171 634 4171 
C 602 4171 595 4164 595 4037 
L 595 2203 
C 595 2089 595 2057 659 2057 
C 691 2057 704 2070 736 2114 
C 941 2401 1222 2522 1542 2522 
C 1766 2522 2246 2382 2246 1289 
C 2246 1085 2246 715 2054 421 
C 1894 159 1645 25 1370 25 
C 947 25 518 320 403 814 
C 429 807 480 795 506 795 
C 589 795 749 840 749 1038 
C 749 1210 627 1280 506 1280 
C 358 1280 262 1190 262 1011 
C 262 454 704 -128 1382 -128 
C 2042 -128 2669 440 2669 1264 
z
" transform="scale(0.015625)"/>
       </defs>
       <use xlink:href="#LMRoman17-Regular-35" transform="scale(0.996264)"/>
      </g>
     </g>
    </g>
    <g id="xtick_3">
     <g id="line2d_3">
      <g>
       <use xlink:href="#m0a101339b9" x="399.186844" y="418.723521" style="stroke: #000000; stroke-width: 0.8"/>
      </g>
     </g>
     <g id="text_3">
      <!-- $\mathdefault{10}$ -->
      <g transform="translate(387.764118 443.250477) scale(0.25 -0.25)">
       <defs>
        <path id="LMRoman17-Regular-31" d="M 2458 0 
L 2458 160 
L 2266 160 
C 1715 160 1702 230 1702 458 
L 1702 4058 
C 1702 4192 1696 4192 1606 4192 
C 1357 3916 979 3827 621 3827 
C 602 3827 570 3827 563 3808 
C 557 3795 557 3782 557 3648 
C 755 3648 1088 3686 1344 3839 
L 1344 461 
C 1344 236 1331 160 781 160 
L 589 160 
L 589 0 
L 1523 0 
L 2458 0 
z
" transform="scale(0.015625)"/>
       </defs>
       <use xlink:href="#LMRoman17-Regular-31" transform="scale(0.996264)"/>
       <use xlink:href="#LMRoman17-Regular-30" transform="translate(45.690948 0) scale(0.996264)"/>
      </g>
     </g>
    </g>
    <g id="xtick_4">
     <g id="line2d_4">
      <g>
       <use xlink:href="#m0a101339b9" x="540.252579" y="418.723521" style="stroke: #000000; stroke-width: 0.8"/>
      </g>
     </g>
     <g id="text_4">
      <!-- $\mathdefault{15}$ -->
      <g transform="translate(528.829853 443.250477) scale(0.25 -0.25)">
       <use xlink:href="#LMRoman17-Regular-31" transform="scale(0.996264)"/>
       <use xlink:href="#LMRoman17-Regular-35" transform="translate(45.690948 0) scale(0.996264)"/>
      </g>
     </g>
    </g>
    <g id="xtick_5">
     <g id="line2d_5">
      <g>
       <use xlink:href="#m0a101339b9" x="681.318314" y="418.723521" style="stroke: #000000; stroke-width: 0.8"/>
      </g>
     </g>
     <g id="text_5">
      <!-- $\mathdefault{20}$ -->
      <g transform="translate(669.895588 443.250477) scale(0.25 -0.25)">
       <defs>
        <path id="LMRoman17-Regular-32" d="M 2669 989 
L 2554 989 
C 2490 536 2438 459 2413 420 
C 2381 369 1920 369 1830 369 
L 602 369 
L 1824 1597 
C 2214 1967 2669 2402 2669 3035 
C 2669 3790 2067 4224 1395 4224 
C 691 4224 262 3604 262 3030 
C 262 2780 448 2748 525 2748 
C 589 2748 781 2787 781 3010 
C 781 3207 614 3264 525 3264 
C 486 3264 448 3258 422 3245 
C 544 3790 915 4058 1306 4058 
C 1862 4058 2227 3617 2227 3035 
C 2227 2479 1901 2000 1536 1584 
L 262 146 
L 262 0 
L 2515 0 
L 2669 989 
z
" transform="scale(0.015625)"/>
       </defs>
       <use xlink:href="#LMRoman17-Regular-32" transform="scale(0.996264)"/>
       <use xlink:href="#LMRoman17-Regular-30" transform="translate(45.690948 0) scale(0.996264)"/>
      </g>
     </g>
    </g>
    <g id="text_6">
     <!-- Distance (m) -->
     <g transform="translate(307.654248 470.77335) scale(0.25 -0.25)">
      <defs>
       <path id="LMRoman12-Bold-44" d="M 5114 2138 
C 5114 3572 4141 4352 2938 4352 
L 243 4352 
L 243 4078 
L 922 4078 
L 922 273 
L 243 273 
L 243 0 
L 2938 0 
C 4166 0 5114 780 5114 2138 
z
M 4243 2144 
C 4243 1402 4147 1073 3923 775 
C 3699 482 3270 273 2694 273 
L 1734 273 
L 1734 4078 
L 2694 4078 
C 3251 4078 3699 3863 3936 3532 
C 4122 3273 4243 2962 4243 2144 
z
" transform="scale(0.015625)"/>
       <path id="LMRoman12-Bold-69" d="M 1786 -13 
L 1786 260 
L 1389 260 
L 1389 2816 
L 301 2816 
L 301 2517 
C 678 2517 723 2517 723 2270 
L 723 260 
L 282 260 
L 282 -13 
C 429 0 870 0 1043 0 
C 1222 0 1632 0 1786 -13 
z
M 1466 3850 
C 1466 4110 1248 4307 1005 4307 
C 742 4307 538 4098 538 3850 
C 538 3589 755 3392 998 3392 
C 1261 3392 1466 3602 1466 3850 
z
" transform="scale(0.015625)"/>
       <path id="LMRoman12-Bold-73" d="M 2592 888 
C 2592 1192 2426 1402 2298 1516 
C 2035 1731 1818 1770 1472 1833 
C 1062 1903 678 1973 678 2277 
C 678 2689 1248 2689 1382 2689 
C 2093 2689 2131 2245 2144 2087 
C 2150 2005 2202 2005 2278 2005 
C 2413 2005 2413 2024 2413 2170 
L 2413 2715 
C 2413 2836 2413 2880 2317 2880 
C 2278 2880 2266 2880 2170 2823 
C 2144 2804 2074 2759 2042 2740 
C 1862 2842 1626 2880 1395 2880 
C 1203 2880 243 2880 243 2056 
C 243 1389 1037 1250 1235 1218 
C 1408 1187 1619 1148 1645 1148 
C 1901 1091 2157 932 2157 666 
C 2157 178 1574 178 1440 178 
C 1114 178 710 279 531 896 
C 493 1023 486 1023 378 1023 
C 243 1023 243 1004 243 858 
L 243 132 
C 243 12 243 -32 339 -32 
C 384 -32 397 -32 525 70 
L 691 191 
C 979 -32 1325 -32 1440 -32 
C 1792 -32 2592 44 2592 888 
z
" transform="scale(0.015625)"/>
       <path id="LMRoman12-Bold-74" d="M 2394 795 
L 2394 1133 
L 2125 1133 
L 2125 802 
C 2125 381 1933 197 1734 197 
C 1350 197 1350 624 1350 770 
L 1350 2560 
L 2272 2560 
L 2272 2833 
L 1350 2833 
L 1350 4032 
L 1082 4032 
C 1075 3405 768 2776 134 2776 
L 134 2560 
L 653 2560 
L 653 789 
C 653 114 1178 -32 1638 -32 
C 2112 -32 2394 325 2394 795 
z
" transform="scale(0.015625)"/>
       <path id="LMRoman12-Bold-61" d="M 3462 145 
C 3462 273 3405 273 3315 273 
C 2912 273 2912 374 2912 522 
L 2912 1898 
C 2912 2484 2445 2879 1542 2879 
C 1184 2879 429 2879 429 2334 
C 429 2061 634 1945 806 1945 
C 998 1945 1184 2079 1184 2323 
C 1184 2445 1139 2559 1030 2630 
C 1242 2688 1395 2688 1517 2688 
C 1952 2688 2214 2445 2214 1919 
L 2214 1663 
C 1203 1663 186 1382 186 676 
C 186 95 928 -32 1370 -32 
C 1862 -32 2176 233 2304 510 
C 2304 274 2304 0 2950 0 
L 3277 0 
C 3411 0 3462 0 3462 145 
z
M 2214 882 
C 2214 291 1677 178 1472 178 
C 1158 178 896 390 896 686 
C 896 1273 1587 1472 2214 1472 
L 2214 882 
z
" transform="scale(0.015625)"/>
       <path id="LMRoman12-Bold-6e" d="M 3840 -13 
L 3840 260 
L 3398 260 
L 3398 1924 
C 3398 2525 3136 2834 2432 2834 
C 1971 2834 1574 2615 1357 2143 
L 1350 2143 
L 1350 2816 
L 269 2816 
L 269 2517 
C 666 2517 710 2517 710 2270 
L 710 260 
L 269 260 
L 269 -13 
C 416 0 877 0 1056 0 
C 1235 0 1702 0 1850 -13 
L 1850 260 
L 1408 260 
L 1408 1607 
C 1408 2289 1920 2624 2330 2624 
C 2566 2624 2701 2473 2701 1993 
L 2701 260 
L 2259 260 
L 2259 -13 
C 2406 0 2867 0 3046 0 
C 3226 0 3693 0 3840 -13 
z
" transform="scale(0.015625)"/>
       <path id="LMRoman12-Bold-63" d="M 2995 753 
C 2995 829 2925 829 2861 829 
C 2758 829 2752 823 2720 747 
C 2675 625 2502 197 1914 197 
C 1011 197 1011 1166 1011 1453 
C 1011 1829 1018 2664 1856 2664 
C 1901 2664 2278 2664 2278 2632 
C 2278 2632 2272 2618 2259 2612 
C 2240 2593 2157 2496 2157 2334 
C 2157 2064 2374 1954 2534 1954 
C 2669 1954 2912 2039 2912 2346 
C 2912 2880 2176 2880 1830 2880 
C 691 2880 243 2145 243 1414 
C 243 552 851 -32 1792 -32 
C 2797 -32 2995 708 2995 753 
z
" transform="scale(0.015625)"/>
       <path id="LMRoman12-Bold-65" d="M 3078 748 
C 3078 843 2982 843 2944 843 
C 2842 843 2835 824 2797 742 
C 2630 330 2208 197 1901 197 
C 973 197 966 1053 966 1408 
L 2893 1408 
C 3040 1408 3078 1408 3078 1567 
C 3078 1758 3034 2233 2739 2532 
C 2470 2798 2112 2880 1741 2880 
C 742 2880 198 2233 198 1434 
C 198 545 858 -32 1824 -32 
C 2790 -32 3078 640 3078 748 
z
M 2490 1593 
L 966 1593 
C 979 1852 986 2100 1120 2328 
C 1242 2531 1466 2670 1741 2670 
C 2426 2670 2483 1909 2490 1593 
z
" transform="scale(0.015625)"/>
       <path id="LMRoman12-Bold-28" d="M 2394 -1524 
C 2394 -1498 2394 -1485 2272 -1371 
C 1555 -659 1280 461 1280 1580 
C 1280 2834 1594 3865 2310 4583 
C 2387 4659 2394 4666 2394 4691 
C 2394 4768 2317 4768 2285 4768 
C 2227 4768 2214 4768 2048 4634 
C 1126 3903 691 2732 691 1588 
C 691 417 1133 -722 2042 -1460 
C 2208 -1600 2221 -1600 2285 -1600 
C 2317 -1600 2394 -1600 2394 -1524 
z
" transform="scale(0.015625)"/>
       <path id="LMRoman12-Bold-6d" d="M 5843 -13 
L 5843 260 
L 5402 260 
L 5402 1924 
C 5402 2506 5152 2834 4435 2834 
C 3789 2834 3488 2407 3386 2206 
C 3283 2740 2848 2834 2438 2834 
C 1824 2834 1491 2445 1357 2143 
L 1350 2143 
L 1350 2816 
L 269 2816 
L 269 2517 
C 666 2517 710 2517 710 2270 
L 710 260 
L 269 260 
L 269 -13 
C 416 0 877 0 1056 0 
C 1235 0 1702 0 1850 -13 
L 1850 260 
L 1408 260 
L 1408 1607 
C 1408 2296 1926 2624 2330 2624 
C 2566 2624 2707 2485 2707 1993 
L 2707 260 
L 2266 260 
L 2266 -13 
C 2413 0 2874 0 3053 0 
C 3232 0 3699 0 3846 -13 
L 3846 260 
L 3405 260 
L 3405 1607 
C 3405 2296 3923 2624 4326 2624 
C 4563 2624 4704 2485 4704 1993 
L 4704 260 
L 4262 260 
L 4262 -13 
C 4410 0 4870 0 5050 0 
C 5229 0 5696 0 5843 -13 
z
" transform="scale(0.015625)"/>
       <path id="LMRoman12-Bold-29" d="M 2099 1581 
C 2099 2751 1658 3890 749 4628 
C 582 4768 570 4768 506 4768 
C 474 4768 397 4768 397 4692 
C 397 4667 397 4654 518 4540 
C 1235 3827 1510 2708 1510 1588 
C 1510 334 1197 -696 480 -1415 
C 403 -1492 397 -1498 397 -1524 
C 397 -1600 474 -1600 506 -1600 
C 563 -1600 576 -1600 742 -1466 
C 1664 -735 2099 436 2099 1581 
z
" transform="scale(0.015625)"/>
      </defs>
      <use xlink:href="#LMRoman12-Bold-44" transform="scale(0.996264)"/>
      <use xlink:href="#LMRoman12-Bold-69" transform="translate(85.902886 0) scale(0.996264)"/>
      <use xlink:href="#LMRoman12-Bold-73" transform="translate(117.036136 0) scale(0.996264)"/>
      <use xlink:href="#LMRoman12-Bold-74" transform="translate(161.24529 0) scale(0.996264)"/>
      <use xlink:href="#LMRoman12-Bold-61" transform="translate(204.831841 0) scale(0.996264)"/>
      <use xlink:href="#LMRoman12-Bold-6e" transform="translate(259.315029 0) scale(0.996264)"/>
      <use xlink:href="#LMRoman12-Bold-63" transform="translate(321.58153 0) scale(0.996264)"/>
      <use xlink:href="#LMRoman12-Bold-65" transform="translate(371.39473 0) scale(0.996264)"/>
      <use xlink:href="#LMRoman12-Bold-28" transform="translate(459.896178 0) scale(0.996264)"/>
      <use xlink:href="#LMRoman12-Bold-6d" transform="translate(503.482728 0) scale(0.996264)"/>
      <use xlink:href="#LMRoman12-Bold-29" transform="translate(596.882479 0) scale(0.996264)"/>
     </g>
    </g>
   </g>
   <g id="matplotlib.axis_2">
    <g id="ytick_1">
     <g id="line2d_6">
      <defs>
       <path id="m84709be139" d="M 0 0 
L -3.5 0 
" style="stroke: #000000; stroke-width: 0.8"/>
      </defs>
      <g>
       <use xlink:href="#m84709be139" x="89.989624" y="418.723521" style="stroke: #000000; stroke-width: 0.8"/>
      </g>
     </g>
     <g id="text_7">
      <!-- $\mathdefault{0.0}$ -->
      <g transform="translate(53.369879 427.486999) scale(0.25 -0.25)">
       <defs>
        <path id="LMMathItalic12-Regular-3a" d="M 1178 307 
C 1178 492 1024 619 870 619 
C 685 619 557 466 557 313 
C 557 128 710 0 864 0 
C 1050 0 1178 153 1178 307 
z
" transform="scale(0.015625)"/>
       </defs>
       <use xlink:href="#LMRoman17-Regular-30" transform="scale(0.996264)"/>
       <use xlink:href="#LMMathItalic12-Regular-3a" transform="translate(45.690948 0) scale(0.996264)"/>
       <use xlink:href="#LMRoman17-Regular-30" transform="translate(72.788125 0) scale(0.996264)"/>
      </g>
     </g>
    </g>
    <g id="ytick_2">
     <g id="line2d_7">
      <g>
       <use xlink:href="#m84709be139" x="89.989624" y="312.785542" style="stroke: #000000; stroke-width: 0.8"/>
      </g>
     </g>
     <g id="text_8">
      <!-- $\mathdefault{0.1}$ -->
      <g transform="translate(53.369879 321.54902) scale(0.25 -0.25)">
       <use xlink:href="#LMRoman17-Regular-30" transform="scale(0.996264)"/>
       <use xlink:href="#LMMathItalic12-Regular-3a" transform="translate(45.690948 0) scale(0.996264)"/>
       <use xlink:href="#LMRoman17-Regular-31" transform="translate(72.788125 0) scale(0.996264)"/>
      </g>
     </g>
    </g>
    <g id="ytick_3">
     <g id="line2d_8">
      <g>
       <use xlink:href="#m84709be139" x="89.989624" y="206.847564" style="stroke: #000000; stroke-width: 0.8"/>
      </g>
     </g>
     <g id="text_9">
      <!-- $\mathdefault{0.2}$ -->
      <g transform="translate(53.369879 215.611041) scale(0.25 -0.25)">
       <use xlink:href="#LMRoman17-Regular-30" transform="scale(0.996264)"/>
       <use xlink:href="#LMMathItalic12-Regular-3a" transform="translate(45.690948 0) scale(0.996264)"/>
       <use xlink:href="#LMRoman17-Regular-32" transform="translate(72.788125 0) scale(0.996264)"/>
      </g>
     </g>
    </g>
    <g id="ytick_4">
     <g id="line2d_9">
      <g>
       <use xlink:href="#m84709be139" x="89.989624" y="100.909585" style="stroke: #000000; stroke-width: 0.8"/>
      </g>
     </g>
     <g id="text_10">
      <!-- $\mathdefault{0.3}$ -->
      <g transform="translate(53.369879 109.673063) scale(0.25 -0.25)">
       <defs>
        <path id="LMRoman17-Regular-33" d="M 2720 1085 
C 2720 1707 2208 2157 1600 2227 
C 2086 2328 2554 2756 2554 3329 
C 2554 3820 2048 4179 1472 4179 
C 890 4179 378 3829 378 3329 
C 378 3110 544 3072 627 3072 
C 762 3072 877 3155 877 3321 
C 877 3486 762 3569 627 3569 
C 602 3569 570 3569 544 3557 
C 730 3959 1235 4032 1459 4032 
C 1683 4032 2106 3925 2106 3320 
C 2106 3143 2080 2828 1862 2550 
C 1670 2304 1453 2304 1242 2284 
C 1210 2284 1062 2269 1037 2269 
C 992 2263 966 2257 966 2208 
C 966 2163 973 2157 1101 2157 
L 1414 2157 
C 1984 2157 2234 1662 2234 1090 
C 2234 320 1824 25 1453 25 
C 1114 25 563 194 390 693 
C 422 680 454 680 486 680 
C 640 680 755 782 755 948 
C 755 1133 614 1216 486 1216 
C 378 1216 211 1165 211 926 
C 211 335 787 -128 1466 -128 
C 2176 -128 2720 430 2720 1085 
z
" transform="scale(0.015625)"/>
       </defs>
       <use xlink:href="#LMRoman17-Regular-30" transform="scale(0.996264)"/>
       <use xlink:href="#LMMathItalic12-Regular-3a" transform="translate(45.690948 0) scale(0.996264)"/>
       <use xlink:href="#LMRoman17-Regular-33" transform="translate(72.788125 0) scale(0.996264)"/>
      </g>
     </g>
    </g>
    <g id="text_11">
     <!-- Density -->
     <g transform="translate(44.526956 269.64672) rotate(-90) scale(0.25 -0.25)">
      <defs>
       <path id="LMRoman12-Bold-79" d="M 3642 2560 
L 3642 2827 
C 3424 2827 3398 2827 3136 2827 
L 2586 2827 
L 2586 2560 
C 2586 2560 2893 2560 2893 2478 
C 2893 2459 2874 2421 2867 2402 
L 2118 805 
L 1299 2560 
L 1651 2560 
L 1651 2833 
C 1498 2827 1062 2827 883 2827 
C 698 2827 320 2827 154 2833 
L 154 2560 
L 563 2560 
L 1747 20 
C 1715 -56 1626 -240 1594 -316 
C 1459 -601 1254 -1038 806 -1038 
C 781 -1038 704 -1038 634 -1000 
C 646 -993 838 -917 838 -676 
C 838 -468 685 -335 493 -335 
C 294 -335 141 -469 141 -684 
C 141 -982 422 -1248 806 -1248 
C 1331 -1248 1677 -779 1805 -500 
L 3168 2421 
C 3206 2509 3232 2560 3642 2560 
z
" transform="scale(0.015625)"/>
      </defs>
      <use xlink:href="#LMRoman12-Bold-44" transform="scale(0.996264)"/>
      <use xlink:href="#LMRoman12-Bold-65" transform="translate(85.902886 0) scale(0.996264)"/>
      <use xlink:href="#LMRoman12-Bold-6e" transform="translate(137.044433 0) scale(0.996264)"/>
      <use xlink:href="#LMRoman12-Bold-73" transform="translate(199.310934 0) scale(0.996264)"/>
      <use xlink:href="#LMRoman12-Bold-69" transform="translate(243.520088 0) scale(0.996264)"/>
      <use xlink:href="#LMRoman12-Bold-74" transform="translate(274.653339 0) scale(0.996264)"/>
      <use xlink:href="#LMRoman12-Bold-79" transform="translate(315.126564 0) scale(0.996264)"/>
     </g>
    </g>
   </g>
   <g id="line2d_10">
    <path d="M 117.055374 411.345656 
L 122.421365 409.424957 
L 127.787357 407.167639 
L 133.153348 404.555035 
L 138.51934 401.575149 
L 143.885331 398.223232 
L 149.251323 394.501933 
L 154.617314 390.421124 
L 159.983305 385.99752 
L 165.349297 381.25432 
L 170.715288 376.221052 
L 176.08128 370.933789 
L 184.130267 362.623423 
L 197.545245 348.236449 
L 205.594232 339.680061 
L 210.960224 334.186104 
L 216.326215 328.967781 
L 221.692207 324.113763 
L 227.058198 319.702045 
L 232.42419 315.792359 
L 235.107185 314.037685 
L 237.790181 312.419116 
L 240.473177 310.936105 
L 243.156172 309.585986 
L 248.522164 307.263169 
L 253.888155 305.388126 
L 259.254147 303.870133 
L 264.620138 302.598472 
L 283.401108 298.433883 
L 288.767099 296.966672 
L 294.133091 295.316655 
L 304.865074 291.669179 
L 310.231065 289.880296 
L 315.597057 288.310746 
L 318.280052 287.661772 
L 320.963048 287.132818 
L 323.646044 286.745726 
L 326.329039 286.52153 
L 329.012035 286.479967 
L 331.695031 286.639023 
L 334.378027 287.014498 
L 337.061022 287.619623 
L 339.744018 288.464727 
L 342.427014 289.556957 
L 345.110009 290.900075 
L 347.793005 292.494322 
L 350.476001 294.336355 
L 353.158996 296.419268 
L 355.841992 298.732687 
L 358.524988 301.262944 
L 361.207984 303.993321 
L 366.573975 309.974236 
L 371.939966 316.493944 
L 379.988954 326.832697 
L 388.037941 337.212564 
L 393.403932 343.837446 
L 398.769924 350.04886 
L 404.135915 355.74147 
L 409.501906 360.855746 
L 414.867898 365.376945 
L 420.233889 369.330019 
L 425.599881 372.771289 
L 430.965872 375.778046 
L 436.331863 378.437374 
L 441.697855 380.835476 
L 449.746842 384.105277 
L 460.478825 388.114801 
L 471.210808 391.851113 
L 479.259795 394.425072 
L 487.308782 396.721377 
L 492.674773 398.068711 
L 500.723761 399.803649 
L 508.772748 401.232719 
L 519.50473 402.826531 
L 535.602705 405.136091 
L 546.334688 406.935619 
L 557.06667 408.986881 
L 578.530636 413.221368 
L 586.579623 414.592357 
L 594.62861 415.748764 
L 602.677597 416.670865 
L 610.726585 417.367002 
L 618.775572 417.865267 
L 629.507555 418.288095 
L 642.922533 418.55653 
L 650.97152 418.634937 
L 650.97152 418.634937 
" clip-path="url(#p1678a7c929)" style="fill: none; stroke: #1f77b4; stroke-width: 1.5; stroke-linecap: square"/>
   </g>
   <g id="line2d_11">
    <path d="M 117.055374 417.650608 
L 121.685643 416.879913 
L 124.000778 416.334228 
L 126.315912 415.650361 
L 128.631047 414.800429 
L 130.946182 413.752879 
L 133.261316 412.472499 
L 135.576451 410.92057 
L 137.891585 409.055187 
L 140.20672 406.831769 
L 142.521854 404.203773 
L 144.836989 401.123628 
L 147.152124 397.543879 
L 149.467258 393.418538 
L 151.782393 388.704603 
L 154.097527 383.363725 
L 156.412662 377.36395 
L 158.727797 370.681476 
L 161.042931 363.30236 
L 163.358066 355.224082 
L 165.6732 346.45688 
L 167.988335 337.024789 
L 170.303469 326.966297 
L 174.933739 305.197208 
L 179.564008 281.743175 
L 191.139681 221.236238 
L 195.76995 198.809992 
L 198.085085 188.453951 
L 200.400219 178.810389 
L 202.715354 169.972641 
L 205.030488 162.022343 
L 207.345623 155.028443 
L 209.660757 149.046582 
L 211.975892 144.118799 
L 214.291027 140.273525 
L 216.606161 137.525803 
L 218.921296 135.87769 
L 221.23643 135.318786 
L 223.551565 135.826862 
L 225.8667 137.368549 
L 228.181834 139.9001 
L 230.496969 143.368206 
L 232.812103 147.710897 
L 235.127238 152.858539 
L 237.442372 158.734947 
L 239.757507 165.258626 
L 242.072642 172.344153 
L 244.387776 179.903677 
L 249.018045 196.090845 
L 255.963449 221.771206 
L 262.908853 247.376233 
L 267.539122 263.682511 
L 272.169391 279.076399 
L 276.79966 293.445005 
L 281.42993 306.773012 
L 286.060199 319.104076 
L 290.690468 330.502495 
L 295.320737 341.022564 
L 299.951006 350.690149 
L 304.581275 359.497579 
L 306.89641 363.568539 
L 309.211545 367.409927 
L 311.526679 371.015407 
L 313.841814 374.378864 
L 316.156948 377.494945 
L 318.472083 380.359534 
L 320.787218 382.970168 
L 323.102352 385.326376 
L 325.417487 387.42992 
L 327.732621 389.284951 
L 330.047756 390.89807 
L 332.362891 392.278308 
L 334.678025 393.43704 
L 336.99316 394.387824 
L 339.308294 395.146205 
L 341.623429 395.729473 
L 343.938563 396.156402 
L 346.253698 396.446963 
L 350.883967 396.703096 
L 355.514236 396.670329 
L 367.089909 396.426595 
L 371.720178 396.645118 
L 376.350448 397.200478 
L 380.980717 398.141082 
L 385.610986 399.469121 
L 390.241255 401.142291 
L 394.871524 403.081056 
L 413.392601 411.324129 
L 418.02287 413.013658 
L 422.653139 414.431327 
L 427.283409 415.560504 
L 431.913678 416.404468 
L 436.543947 416.979067 
L 441.174216 417.305469 
L 445.804485 417.404568 
L 450.434754 417.293981 
L 455.065024 416.987988 
L 459.695293 416.500093 
L 466.640697 415.466715 
L 473.5861 414.161907 
L 487.476908 411.453262 
L 492.107177 410.775086 
L 496.737446 410.320544 
L 501.367715 410.133843 
L 505.997984 410.233646 
L 510.628254 410.610145 
L 515.258523 411.226724 
L 522.203927 412.472352 
L 538.409869 415.67677 
L 545.355272 416.750117 
L 552.300676 417.538618 
L 559.24608 418.063986 
L 566.191484 418.383206 
L 575.452022 418.598339 
L 577.767157 418.628063 
L 577.767157 418.628063 
" clip-path="url(#p1678a7c929)" style="fill: none; stroke: #ff7f0e; stroke-width: 1.5; stroke-linecap: square"/>
   </g>
   <g id="line2d_12">
    <path d="M 160.725268 418.183943 
L 163.057792 417.832879 
L 165.390317 417.286676 
L 167.722841 416.457464 
L 170.055366 415.229011 
L 171.221628 414.42001 
L 172.38789 413.452875 
L 173.554152 412.303694 
L 174.720415 410.946447 
L 175.886677 409.353137 
L 177.052939 407.493973 
L 178.219201 405.337652 
L 179.385464 402.851716 
L 180.551726 400.003 
L 181.717988 396.75817 
L 182.88425 393.084348 
L 184.050513 388.949811 
L 185.216775 384.324763 
L 186.383037 379.182165 
L 187.549299 373.49859 
L 189.881824 360.438146 
L 192.214348 345.061193 
L 194.546873 327.395851 
L 196.879397 307.599178 
L 199.211922 285.965697 
L 202.710709 251.038305 
L 209.708282 179.575125 
L 212.040807 157.597709 
L 214.373331 137.454016 
L 216.705856 119.502902 
L 219.03838 103.93434 
L 221.370905 90.765354 
L 223.703429 79.859155 
L 224.869691 75.179353 
L 226.035954 70.965398 
L 227.202216 67.177411 
L 228.368478 63.775818 
L 229.53474 60.72331 
L 230.701003 57.98667 
L 231.867265 55.538387 
L 233.033527 53.358 
L 234.199789 51.433115 
L 235.366052 49.760048 
L 236.532314 48.344067 
L 237.698576 47.199239 
L 238.864838 46.347877 
L 240.031101 45.819613 
L 241.197363 45.650153 
L 242.363625 45.879746 
L 243.529887 46.551452 
L 244.69615 47.709259 
L 245.862412 49.396152 
L 247.028674 51.65218 
L 248.194936 54.512617 
L 249.361199 58.006276 
L 250.527461 62.154032 
L 251.693723 66.967619 
L 252.859985 72.448717 
L 254.026248 78.58838 
L 256.358772 92.75339 
L 258.691297 109.17797 
L 261.023821 127.426396 
L 264.522608 156.993398 
L 270.353919 206.938441 
L 272.686444 225.466506 
L 275.018968 242.501247 
L 277.351493 257.773032 
L 279.684017 271.147845 
L 282.016542 282.61761 
L 284.349066 292.280309 
L 286.681591 300.313806 
L 289.014115 306.947445 
L 291.34664 312.435044 
L 293.679164 317.031993 
L 296.011689 320.97801 
L 298.344213 324.485977 
L 301.843 329.312023 
L 307.674311 337.250893 
L 311.173098 342.388362 
L 314.671885 347.952723 
L 318.170671 353.930018 
L 325.168245 366.546685 
L 329.833294 374.672087 
L 333.332081 380.186428 
L 335.664605 383.49109 
L 337.99713 386.478735 
L 340.329654 389.163224 
L 342.662179 391.582389 
L 346.160965 394.835537 
L 350.826014 398.788309 
L 361.322375 407.329833 
L 364.821162 409.958031 
L 368.319948 412.290153 
L 370.652473 413.632632 
L 372.984997 414.787033 
L 375.317522 415.750849 
L 377.650046 416.532102 
L 381.148833 417.398617 
L 384.64762 417.965885 
L 388.146407 418.313952 
L 392.811456 418.558354 
L 392.811456 418.558354 
" clip-path="url(#p1678a7c929)" style="fill: none; stroke: #2ca02c; stroke-width: 1.5; stroke-linecap: square"/>
   </g>
   <g id="line2d_13">
    <path d="M 117.055374 404.532399 
L 119.77555 402.792383 
L 122.495726 400.900268 
L 125.215902 398.849964 
L 127.936077 396.63592 
L 130.656253 394.253246 
L 133.376429 391.697866 
L 136.096605 388.966676 
L 138.816781 386.057736 
L 141.536956 382.97047 
L 144.257132 379.705886 
L 149.697484 372.658093 
L 155.137836 364.962857 
L 160.578187 356.708342 
L 166.018539 348.027668 
L 182.339594 321.445698 
L 187.779946 313.262674 
L 190.500121 309.458357 
L 193.220297 305.892361 
L 195.940473 302.597669 
L 198.660649 299.604652 
L 201.380825 296.940369 
L 204.101001 294.62791 
L 206.821176 292.685822 
L 209.541352 291.127632 
L 212.261528 289.961472 
L 214.981704 289.189837 
L 217.70188 288.809479 
L 220.422056 288.81143 
L 223.142231 289.181173 
L 225.862407 289.89894 
L 228.582583 290.940134 
L 231.302759 292.275867 
L 234.022935 293.873584 
L 236.743111 295.697764 
L 239.463286 297.710682 
L 244.903638 302.145512 
L 258.504517 313.814716 
L 263.944869 317.998747 
L 266.665045 319.880957 
L 269.385221 321.599512 
L 272.105396 323.141883 
L 274.825572 324.499807 
L 277.545748 325.669206 
L 280.265924 326.650021 
L 282.9861 327.445977 
L 285.706276 328.064295 
L 288.426451 328.515347 
L 291.146627 328.812274 
L 293.866803 328.970577 
L 299.307155 328.942524 
L 304.747506 328.58593 
L 321.068561 327.169775 
L 326.508913 327.069318 
L 331.949265 327.340784 
L 334.669441 327.637947 
L 337.389616 328.050285 
L 340.109792 328.580851 
L 342.829968 329.230652 
L 348.27032 330.88212 
L 353.710671 332.974658 
L 359.151023 335.451681 
L 364.591375 338.234994 
L 372.751902 342.77689 
L 386.352781 350.484883 
L 391.793133 353.35706 
L 397.233485 356.019209 
L 402.673836 358.450768 
L 408.114188 360.662959 
L 416.274716 363.665976 
L 432.595771 369.434395 
L 438.036122 371.561405 
L 443.476474 373.875249 
L 448.916826 376.387025 
L 457.077353 380.47696 
L 478.83876 391.803806 
L 484.279111 394.328952 
L 489.719463 396.612 
L 495.159815 398.624249 
L 500.600166 400.357786 
L 506.040518 401.823753 
L 511.48087 403.048937 
L 516.921221 404.071395 
L 525.081749 405.323329 
L 535.962452 406.706858 
L 552.283507 408.763278 
L 563.16421 410.337143 
L 595.80632 415.315696 
L 603.966848 416.286934 
L 612.127375 417.064676 
L 620.287903 417.649809 
L 631.168606 418.168891 
L 642.04931 418.462707 
L 658.370365 418.653206 
L 658.370365 418.653206 
" clip-path="url(#p1678a7c929)" style="fill: none; stroke-dasharray: 5.55,2.4; stroke-dashoffset: 0; stroke: #ff0000; stroke-width: 1.5"/>
   </g>
   <g id="patch_3">
    <path d="M 89.989624 418.723521 
L 89.989624 27 
" style="fill: none; stroke: #000000; stroke-width: 0.8; stroke-linejoin: miter; stroke-linecap: square"/>
   </g>
   <g id="patch_4">
    <path d="M 685.436114 418.723521 
L 685.436114 27 
" style="fill: none; stroke: #000000; stroke-width: 0.8; stroke-linejoin: miter; stroke-linecap: square"/>
   </g>
   <g id="patch_5">
    <path d="M 89.989624 418.723521 
L 685.436114 418.723521 
" style="fill: none; stroke: #000000; stroke-width: 0.8; stroke-linejoin: miter; stroke-linecap: square"/>
   </g>
   <g id="patch_6">
    <path d="M 89.989624 27 
L 685.436114 27 
" style="fill: none; stroke: #000000; stroke-width: 0.8; stroke-linejoin: miter; stroke-linecap: square"/>
   </g>
   <g id="legend_1">
    <g id="text_12">
     <!-- Method -->
     <g transform="translate(430.341173 67.026956) scale(0.25 -0.25)">
      <defs>
       <path id="LMRoman12-Bold-4d" d="M 6560 -13 
L 6560 260 
L 5882 260 
L 5882 4078 
L 6560 4078 
L 6560 4352 
L 5197 4352 
C 5062 4352 5005 4352 4947 4218 
L 3411 795 
L 1875 4218 
C 1818 4352 1760 4352 1626 4352 
L 262 4352 
L 262 4078 
L 941 4078 
L 941 444 
C 941 304 934 298 768 272 
C 653 260 525 260 410 260 
L 262 260 
L 262 -13 
C 410 0 909 0 1088 0 
C 1267 0 1773 0 1920 -13 
L 1920 260 
L 1773 260 
C 1600 260 1587 260 1434 279 
C 1248 305 1242 311 1242 451 
L 1242 4002 
L 1248 4002 
L 2989 134 
C 3021 64 3059 0 3168 0 
C 3277 0 3315 64 3347 134 
L 5120 4078 
L 5126 4078 
L 5126 260 
L 4448 260 
L 4448 -13 
C 4621 0 5286 0 5504 0 
C 5722 0 6387 0 6560 -13 
z
" transform="scale(0.015625)"/>
       <path id="LMRoman12-Bold-68" d="M 3840 -13 
L 3840 260 
L 3398 260 
L 3398 1924 
C 3398 2525 3136 2834 2432 2834 
C 1786 2834 1472 2384 1382 2194 
L 1376 2194 
L 1376 4352 
L 269 4352 
L 269 4053 
C 666 4053 710 4053 710 3807 
L 710 260 
L 269 260 
L 269 -13 
C 416 0 877 0 1056 0 
C 1235 0 1702 0 1850 -13 
L 1850 260 
L 1408 260 
L 1408 1607 
C 1408 2289 1920 2624 2330 2624 
C 2566 2624 2701 2473 2701 1993 
L 2701 260 
L 2259 260 
L 2259 -13 
C 2406 0 2867 0 3046 0 
C 3226 0 3693 0 3840 -13 
z
" transform="scale(0.015625)"/>
       <path id="LMRoman12-Bold-6f" d="M 3392 1395 
C 3392 2252 2803 2880 1798 2880 
C 755 2880 198 2220 198 1395 
C 198 565 787 -32 1792 -32 
C 2835 -32 3392 596 3392 1395 
z
M 2624 1459 
C 2624 932 2624 197 1798 197 
C 966 197 966 939 966 1459 
C 966 1757 966 2074 1088 2303 
C 1229 2556 1517 2670 1792 2670 
C 2157 2670 2387 2499 2496 2322 
C 2624 2093 2624 1763 2624 1459 
z
" transform="scale(0.015625)"/>
       <path id="LMRoman12-Bold-64" d="M 3770 0 
L 3770 292 
C 3373 292 3328 292 3328 540 
L 3328 4352 
L 2221 4352 
L 2221 4053 
C 2618 4053 2662 4053 2662 3816 
L 2662 2575 
C 2522 2696 2240 2880 1798 2880 
C 890 2880 243 2318 243 1424 
C 243 510 877 -32 1728 -32 
C 2080 -32 2381 94 2630 311 
L 2630 0 
L 3770 0 
z
M 2630 661 
C 2362 262 2035 178 1805 178 
C 1011 178 1011 989 1011 1411 
C 1011 1712 1011 2032 1152 2274 
C 1350 2632 1728 2670 1875 2670 
C 2138 2670 2419 2556 2630 2276 
L 2630 661 
z
" transform="scale(0.015625)"/>
      </defs>
      <use xlink:href="#LMRoman12-Bold-4d" transform="scale(0.996264)"/>
      <use xlink:href="#LMRoman12-Bold-65" transform="translate(106.317937 0) scale(0.996264)"/>
      <use xlink:href="#LMRoman12-Bold-74" transform="translate(157.459484 0) scale(0.996264)"/>
      <use xlink:href="#LMRoman12-Bold-68" transform="translate(201.046035 0) scale(0.996264)"/>
      <use xlink:href="#LMRoman12-Bold-6f" transform="translate(263.312535 0) scale(0.996264)"/>
      <use xlink:href="#LMRoman12-Bold-64" transform="translate(322.465711 0) scale(0.996264)"/>
     </g>
    </g>
    <g id="line2d_14">
     <path d="M 293.929277 94.299829 
L 318.929277 94.299829 
L 343.929277 94.299829 
" style="fill: none; stroke: #1f77b4; stroke-width: 1.5; stroke-linecap: square"/>
    </g>
    <g id="text_13">
     <!-- Ours (Patch-Calibrated) -->
     <g transform="translate(363.929277 103.049829) scale(0.25 -0.25)">
      <defs>
       <path id="LMRoman12-Bold-4f" d="M 5005 2176 
C 5005 3524 4122 4453 2701 4453 
C 1274 4453 397 3517 397 2176 
C 397 833 1293 -64 2701 -64 
C 4109 -64 5005 833 5005 2176 
z
M 4102 2265 
C 4102 1634 4032 1107 3712 667 
C 3552 451 3200 177 2701 177 
C 2285 177 1882 374 1638 737 
C 1331 1202 1299 1800 1299 2265 
C 1299 2653 1318 3187 1581 3620 
C 1862 4065 2323 4224 2701 4224 
C 3219 4224 3603 3951 3789 3665 
C 4026 3295 4102 2901 4102 2265 
z
" transform="scale(0.015625)"/>
       <path id="LMRoman12-Bold-75" d="M 3840 0 
L 3840 292 
C 3443 292 3398 292 3398 540 
L 3398 2859 
L 2259 2859 
L 2259 2560 
C 2656 2560 2701 2560 2701 2312 
L 2701 1056 
C 2701 569 2413 178 1914 178 
C 1434 178 1408 337 1408 684 
L 1408 2859 
L 269 2859 
L 269 2560 
C 666 2560 710 2560 710 2312 
L 710 794 
C 710 153 1139 -32 1824 -32 
C 1978 -32 2451 -32 2726 496 
L 2733 496 
L 2733 0 
L 3840 0 
z
" transform="scale(0.015625)"/>
       <path id="LMRoman12-Bold-72" d="M 2733 2337 
C 2733 2658 2400 2834 2093 2834 
C 1587 2834 1370 2401 1280 2137 
L 1274 2137 
L 1274 2816 
L 224 2816 
L 224 2517 
C 621 2517 666 2517 666 2270 
L 666 260 
L 224 260 
L 224 -13 
C 371 0 851 0 1030 0 
C 1216 0 1734 0 1888 -13 
L 1888 260 
L 1331 260 
L 1331 1411 
C 1331 1619 1376 2624 2125 2624 
C 2035 2555 1990 2448 1990 2336 
C 1990 2079 2202 1972 2362 1972 
C 2522 1972 2733 2079 2733 2337 
z
" transform="scale(0.015625)"/>
       <path id="LMRoman12-Bold-50" d="M 4518 3128 
C 4518 3812 3910 4352 2854 4352 
L 243 4352 
L 243 4078 
L 922 4078 
L 922 267 
L 243 267 
L 243 0 
C 429 0 1114 0 1344 0 
C 1574 0 2259 0 2445 0 
L 2445 267 
L 1766 267 
L 1766 1934 
L 2854 1934 
C 3923 1934 4518 2474 4518 3128 
z
M 3616 3127 
C 3616 2709 3616 2176 2624 2176 
L 1734 2176 
L 1734 4078 
L 2624 4078 
C 3616 4078 3616 3558 3616 3127 
z
" transform="scale(0.015625)"/>
       <path id="LMRoman12-Bold-2d" d="M 1997 1088 
L 1997 1673 
L 77 1673 
L 77 1088 
L 1997 1088 
z
" transform="scale(0.015625)"/>
       <path id="LMRoman12-Bold-43" d="M 4794 1456 
C 4794 1564 4755 1564 4659 1564 
C 4595 1564 4531 1564 4525 1501 
C 4467 539 3642 209 3066 209 
C 2650 209 2086 324 1728 722 
C 1504 963 1299 1310 1299 2184 
C 1299 2805 1395 3267 1696 3621 
C 2106 4096 2746 4160 3053 4160 
C 3533 4160 4307 3893 4499 2779 
C 4512 2722 4570 2722 4646 2722 
C 4794 2722 4794 2735 4794 2887 
L 4794 4269 
C 4794 4415 4794 4434 4653 4434 
L 4173 3976 
C 3814 4280 3386 4433 2912 4433 
C 1382 4433 397 3514 397 2184 
C 397 879 1350 -64 2918 -64 
C 4058 -64 4794 708 4794 1456 
z
" transform="scale(0.015625)"/>
       <path id="LMRoman12-Bold-6c" d="M 1830 -13 
L 1830 260 
L 1389 260 
L 1389 4352 
L 282 4352 
L 282 4053 
C 678 4053 723 4053 723 3806 
L 723 260 
L 282 260 
L 282 -13 
C 429 0 883 0 1056 0 
C 1229 0 1683 0 1830 -13 
z
" transform="scale(0.015625)"/>
       <path id="LMRoman12-Bold-62" d="M 3750 1431 
C 3750 2305 3149 2880 2272 2880 
C 1894 2880 1594 2759 1331 2555 
L 1331 4352 
L 224 4352 
L 224 4053 
C 621 4053 666 4053 666 3816 
L 666 0 
L 934 0 
C 1043 123 1152 247 1254 376 
C 1581 38 1933 -32 2189 -32 
C 3072 -32 3750 504 3750 1431 
z
M 2982 1437 
C 2982 1149 2982 785 2829 548 
C 2630 241 2330 178 2125 178 
C 1690 178 1453 484 1363 625 
L 1363 2248 
C 1587 2555 1920 2670 2189 2670 
C 2982 2670 2982 1859 2982 1437 
z
" transform="scale(0.015625)"/>
      </defs>
      <use xlink:href="#LMRoman12-Bold-4f" transform="scale(0.996264)"/>
      <use xlink:href="#LMRoman12-Bold-75" transform="translate(84.176069 0) scale(0.996264)"/>
      <use xlink:href="#LMRoman12-Bold-72" transform="translate(146.44257 0) scale(0.996264)"/>
      <use xlink:href="#LMRoman12-Bold-73" transform="translate(192.220929 0) scale(0.996264)"/>
      <use xlink:href="#LMRoman12-Bold-28" transform="translate(273.789984 0) scale(0.996264)"/>
      <use xlink:href="#LMRoman12-Bold-50" transform="translate(317.376534 0) scale(0.996264)"/>
      <use xlink:href="#LMRoman12-Bold-61" transform="translate(390.82612 0) scale(0.996264)"/>
      <use xlink:href="#LMRoman12-Bold-74" transform="translate(445.309308 0) scale(0.996264)"/>
      <use xlink:href="#LMRoman12-Bold-63" transform="translate(488.895858 0) scale(0.996264)"/>
      <use xlink:href="#LMRoman12-Bold-68" transform="translate(535.595734 0) scale(0.996264)"/>
      <use xlink:href="#LMRoman12-Bold-2d" transform="translate(597.862234 0) scale(0.996264)"/>
      <use xlink:href="#LMRoman12-Bold-43" transform="translate(635.222135 0) scale(0.996264)"/>
      <use xlink:href="#LMRoman12-Bold-61" transform="translate(716.168585 0) scale(0.996264)"/>
      <use xlink:href="#LMRoman12-Bold-6c" transform="translate(770.651773 0) scale(0.996264)"/>
      <use xlink:href="#LMRoman12-Bold-69" transform="translate(801.785024 0) scale(0.996264)"/>
      <use xlink:href="#LMRoman12-Bold-62" transform="translate(832.918274 0) scale(0.996264)"/>
      <use xlink:href="#LMRoman12-Bold-72" transform="translate(895.184775 0) scale(0.996264)"/>
      <use xlink:href="#LMRoman12-Bold-61" transform="translate(940.963133 0) scale(0.996264)"/>
      <use xlink:href="#LMRoman12-Bold-74" transform="translate(995.446321 0) scale(0.996264)"/>
      <use xlink:href="#LMRoman12-Bold-65" transform="translate(1039.032872 0) scale(0.996264)"/>
      <use xlink:href="#LMRoman12-Bold-64" transform="translate(1090.174419 0) scale(0.996264)"/>
      <use xlink:href="#LMRoman12-Bold-29" transform="translate(1152.44092 0) scale(0.996264)"/>
     </g>
    </g>
    <g id="line2d_15">
     <path d="M 293.929277 130.553435 
L 318.929277 130.553435 
L 343.929277 130.553435 
" style="fill: none; stroke: #ff7f0e; stroke-width: 1.5; stroke-linecap: square"/>
    </g>
    <g id="text_14">
     <!-- AUDIT- -DA -->
     <g transform="translate(363.929277 139.303435) scale(0.25 -0.25)">
      <defs>
       <path id="LMRoman12-Bold-41" d="M 5184 -13 
L 5184 260 
L 4576 260 
L 2931 4301 
C 2886 4416 2874 4448 2720 4448 
C 2560 4448 2547 4416 2502 4301 
L 915 413 
C 870 311 870 299 691 279 
C 531 260 506 260 365 260 
L 250 260 
L 250 -13 
C 416 0 800 0 986 0 
C 1158 0 1626 0 1773 -13 
L 1773 260 
C 1632 260 1389 260 1210 331 
C 1229 390 1229 402 1242 428 
L 1581 1262 
L 3296 1262 
L 3699 260 
L 3098 260 
L 3098 0 
C 3302 0 3923 0 4166 0 
C 4371 0 5024 0 5184 -13 
z
M 3181 1536 
L 1690 1536 
L 2438 3367 
L 3181 1536 
z
" transform="scale(0.015625)"/>
       <path id="LMRoman12-Bold-55" d="M 5286 4091 
L 5286 4365 
C 5139 4352 4640 4352 4461 4352 
C 4282 4352 3782 4352 3635 4365 
L 3635 4091 
L 3782 4091 
C 3955 4091 3968 4091 4122 4072 
C 4307 4047 4314 4040 4314 3900 
L 4314 1473 
C 4314 562 3667 192 2912 192 
C 1792 192 1766 1046 1766 1416 
L 1766 4091 
L 2445 4091 
L 2445 4352 
C 2259 4352 1574 4352 1344 4352 
C 1114 4352 429 4352 243 4352 
L 243 4091 
L 922 4091 
L 922 1460 
C 922 619 1600 -81 2886 -81 
C 4070 -81 4608 652 4608 1456 
L 4608 3905 
C 4608 4046 4614 4053 4781 4078 
C 4896 4091 5024 4091 5139 4091 
L 5286 4091 
z
" transform="scale(0.015625)"/>
       <path id="LMRoman12-Bold-49" d="M 2477 0 
L 2477 267 
L 1760 267 
L 1760 4085 
L 2477 4085 
L 2477 4352 
C 2246 4352 1606 4352 1338 4352 
C 1069 4352 429 4352 198 4352 
L 198 4085 
L 915 4085 
L 915 267 
L 198 267 
L 198 0 
C 429 0 1069 0 1338 0 
C 1606 0 2246 0 2477 0 
z
" transform="scale(0.015625)"/>
       <path id="LMRoman12-Bold-54" d="M 4736 2797 
L 4608 4305 
L 390 4305 
L 262 2797 
L 531 2797 
C 589 3491 640 4032 1562 4032 
L 2080 4032 
L 2080 267 
L 1114 267 
L 1114 0 
L 2502 0 
L 3891 0 
L 3891 267 
L 2925 267 
L 2925 4032 
L 3437 4032 
C 4358 4032 4410 3497 4467 2797 
L 4736 2797 
z
" transform="scale(0.015625)"/>
       <path id="LMRoman12-Bold-7b" d="M 3590 1664 
L 3590 1874 
L 0 1874 
L 0 1664 
L 3590 1664 
z
" transform="scale(0.015625)"/>
      </defs>
      <use xlink:href="#LMRoman12-Bold-41" transform="scale(0.996264)"/>
      <use xlink:href="#LMRoman12-Bold-55" transform="translate(81.519269 0) scale(0.996264)"/>
      <use xlink:href="#LMRoman12-Bold-44" transform="translate(167.65456 0) scale(0.996264)"/>
      <use xlink:href="#LMRoman12-Bold-49" transform="translate(253.557445 0) scale(0.996264)"/>
      <use xlink:href="#LMRoman12-Bold-54" transform="translate(295.300871 0) scale(0.996264)"/>
      <use xlink:href="#LMRoman12-Bold-7b" transform="translate(373.25029 0) scale(0.996264)"/>
      <use xlink:href="#LMRoman12-Bold-44" transform="translate(429.290141 0) scale(0.996264)"/>
      <use xlink:href="#LMRoman12-Bold-41" transform="translate(512.079701 0) scale(0.996264)"/>
     </g>
    </g>
    <g id="line2d_16">
     <path d="M 293.929277 165.423314 
L 318.929277 165.423314 
L 343.929277 165.423314 
" style="fill: none; stroke: #2ca02c; stroke-width: 1.5; stroke-linecap: square"/>
    </g>
    <g id="text_15">
     <!-- AUDIT- -DPT -->
     <g transform="translate(363.929277 174.173314) scale(0.25 -0.25)">
      <use xlink:href="#LMRoman12-Bold-41" transform="scale(0.996264)"/>
      <use xlink:href="#LMRoman12-Bold-55" transform="translate(81.519269 0) scale(0.996264)"/>
      <use xlink:href="#LMRoman12-Bold-44" transform="translate(167.65456 0) scale(0.996264)"/>
      <use xlink:href="#LMRoman12-Bold-49" transform="translate(253.557445 0) scale(0.996264)"/>
      <use xlink:href="#LMRoman12-Bold-54" transform="translate(295.300871 0) scale(0.996264)"/>
      <use xlink:href="#LMRoman12-Bold-7b" transform="translate(373.25029 0) scale(0.996264)"/>
      <use xlink:href="#LMRoman12-Bold-44" transform="translate(429.290141 0) scale(0.996264)"/>
      <use xlink:href="#LMRoman12-Bold-50" transform="translate(515.193026 0) scale(0.996264)"/>
      <use xlink:href="#LMRoman12-Bold-54" transform="translate(591.755937 0) scale(0.996264)"/>
     </g>
    </g>
    <g id="line2d_17">
     <path d="M 293.929277 200.293193 
L 318.929277 200.293193 
L 343.929277 200.293193 
" style="fill: none; stroke-dasharray: 5.55,2.4; stroke-dashoffset: 0; stroke: #ff0000; stroke-width: 1.5"/>
    </g>
    <g id="text_16">
     <!-- Ground Truth -->
     <g transform="translate(363.929277 209.043193) scale(0.25 -0.25)">
      <defs>
       <path id="LMRoman12-Bold-47" d="M 5293 1461 
L 5293 1734 
C 5139 1728 4454 1728 4250 1728 
L 3046 1728 
L 3046 1461 
L 3949 1461 
L 3949 811 
C 3949 677 3949 498 3693 338 
C 3565 256 3366 192 3098 192 
C 2733 192 2099 281 1702 745 
C 1453 1031 1299 1419 1299 2182 
C 1299 2837 1408 3282 1696 3619 
C 2106 4096 2746 4160 3053 4160 
C 3533 4160 4307 3892 4499 2775 
C 4512 2718 4570 2718 4646 2718 
C 4794 2718 4794 2731 4794 2884 
L 4794 4269 
C 4794 4415 4794 4434 4653 4434 
L 4173 3976 
C 3814 4280 3386 4433 2912 4433 
C 1382 4433 397 3511 397 2176 
C 397 866 1350 -81 2918 -81 
C 3347 -81 3853 14 4115 351 
C 4333 151 4698 0 4717 0 
C 4794 0 4794 64 4794 165 
L 4794 1461 
L 5293 1461 
z
" transform="scale(0.015625)"/>
      </defs>
      <use xlink:href="#LMRoman12-Bold-47" transform="scale(0.996264)"/>
      <use xlink:href="#LMRoman12-Bold-72" transform="translate(88.094603 0) scale(0.996264)"/>
      <use xlink:href="#LMRoman12-Bold-6f" transform="translate(133.872961 0) scale(0.996264)"/>
      <use xlink:href="#LMRoman12-Bold-75" transform="translate(189.912812 0) scale(0.996264)"/>
      <use xlink:href="#LMRoman12-Bold-6e" transform="translate(252.179312 0) scale(0.996264)"/>
      <use xlink:href="#LMRoman12-Bold-64" transform="translate(314.445813 0) scale(0.996264)"/>
      <use xlink:href="#LMRoman12-Bold-54" transform="translate(414.072214 0) scale(0.996264)"/>
      <use xlink:href="#LMRoman12-Bold-72" transform="translate(482.681658 0) scale(0.996264)"/>
      <use xlink:href="#LMRoman12-Bold-75" transform="translate(528.460017 0) scale(0.996264)"/>
      <use xlink:href="#LMRoman12-Bold-74" transform="translate(590.726518 0) scale(0.996264)"/>
      <use xlink:href="#LMRoman12-Bold-68" transform="translate(634.313068 0) scale(0.996264)"/>
     </g>
    </g>
   </g>
  </g>
 </g>
 <defs>
  <clipPath id="p1678a7c929">
   <rect x="89.989624" y="27" width="595.44649" height="391.723521"/>
  </clipPath>
 </defs>
</svg>
